<svg xmlns="http://www.w3.org/2000/svg" width="45" height="45" viewBox="0 0 45 45">
  <path fill="#FAD136" fill-rule="evenodd" d="M21.733,0.013 C21.565,0.009 21.397,0 21.227,0 C20.397,0 19.578,0.053 18.772,0.146 C17.975,0.238 17.194,0.375 16.426,0.552 C15.409,0.787 14.421,1.096 13.464,1.471 C12.659,1.788 11.874,2.148 11.12,2.557 C10.076,3.123 9.087,3.78 8.159,4.507 C7.324,5.16 6.54,5.873 5.812,6.642 C4.678,7.84 3.683,9.17 2.851,10.607 C1.78,12.455 0.98,14.48 0.505,16.627 C0.178,18.109 0,19.648 0,21.228 C0,21.953 0.037,22.669 0.107,23.375 C0.191,24.209 0.328,25.026 0.505,25.829 C0.98,27.976 1.78,30.001 2.851,31.85 C3.683,33.286 4.678,34.616 5.812,35.814 C6.54,36.582 7.324,37.296 8.159,37.949 C9.087,38.677 10.076,39.332 11.12,39.899 C11.874,40.308 12.659,40.668 13.464,40.985 C14.421,41.361 15.409,41.669 16.426,41.904 C17.194,42.081 17.975,42.218 18.772,42.31 C19.578,42.403 20.397,42.456 21.227,42.456 C21.397,42.456 21.565,42.447 21.733,42.443 C22.527,42.425 23.309,42.364 24.079,42.26 C25.09,42.124 26.079,41.917 27.041,41.643 C27.842,41.416 28.627,41.146 29.385,40.829 C30.417,40.399 31.406,39.89 32.347,39.311 C33.168,38.805 33.952,38.247 34.693,37.638 C35.775,36.749 36.766,35.755 37.654,34.672 C38.549,33.58 39.335,32.396 40,31.138 C41.249,28.779 42.068,26.158 42.347,23.375 C42.419,22.669 42.455,21.953 42.455,21.228 C42.455,17.648 41.565,14.277 40,11.318 C39.335,10.06 38.549,8.876 37.654,7.784 C36.766,6.701 35.775,5.707 34.693,4.818 C33.952,4.209 33.168,3.651 32.347,3.145 C31.406,2.565 30.417,2.057 29.385,1.627 C28.627,1.31 27.842,1.04 27.041,0.813 C26.079,0.539 25.09,0.332 24.079,0.197 C23.309,0.093 22.527,0.032 21.733,0.013"/>
</svg>
