<svg xmlns="http://www.w3.org/2000/svg" width="35" height="35" viewBox="0 0 35 35">
  <g fill="none" fill-rule="evenodd">
    <path fill="#1E1E20" d="M3.5 15C1.57478788 15 0 13.3497778 0 11.3333333L0 5.66666667C0 3.64977778 1.57478788 2 3.5 2 5.42521212 2 7 3.64977778 7 5.66666667L7 11.3333333C7 13.3497778 5.42521212 15 3.5 15M22.5 17C20.5747879 17 19 15.2546224 19 13.1219054L19 8.87809464C19 6.74490755 20.5747879 5 22.5 5 24.4252121 5 26 6.74490755 26 8.87809464L26 13.1219054C26 15.2546224 24.4252121 17 22.5 17M31.5 16C29.5747879 16 28 14.4200672 28 12.4895111L28 9.51048892C28 7.57950726 29.5747879 6 31.5 6 33.4252121 6 35 7.57950726 35 9.51048892L35 12.4895111C35 14.4200672 33.4252121 16 31.5 16M12.5 15C10.5747879 15 9 13.3228439 9 11.2734883L9 3.72651168C9 1.67670441 10.5747879 0 12.5 0 14.4252121 0 16 1.67670441 16 3.72651168L16 11.2734883C16 13.3228439 14.4252121 15 12.5 15M1.42012469 24.950293C.472033322 22.8128408 1.1677195 20.3553121 3.11240714 18.9732229 4.009748 18.3361019 5.07101749 18 6.1834866 18L18.0555127 18C19.5434458 18 19.8519909 19.1637962 19.8519909 20.5987261 19.8519909 22.0336561 19.5434458 23.1974522 18.0555127 23.1974522L6.50864916 23.1974522C7.95661058 26.2791083 10.8857683 29.8025478 16.7081541 29.8025478 25.5311076 29.8025478 28.2581615 20.9820382 28.2891507 20.8884841 28.7432106 19.5219873 30.7090068 18.7670573 32.1268772 19.2066752 33.5438494 19.6445605 34.3248683 19.8082803 33.8708084 21.1752102 33.6947536 21.7044841 29.4195846 35 16.7081541 35 6.93980392 35 2.76254301 27.9717452 1.42012469 24.950293z"/>
  </g>
</svg>
