<svg xmlns="http://www.w3.org/2000/svg" width="207" height="207" viewBox="0 0 207 207">
  <g fill="none" fill-rule="evenodd">
    <path fill="#099CA0" d="M159.8353 22.5242C161.5483 22.5242 162.9373 21.1352 162.9373 19.4232 162.9373 17.7102 161.5483 16.3222 159.8353 16.3222 158.1233 16.3222 156.7343 17.7102 156.7343 19.4232 156.7343 21.1352 158.1233 22.5242 159.8353 22.5242M158.8861 35.0238C160.5201 35.0238 161.8431 33.6988 161.8431 32.0658 161.8431 30.4328 160.5201 29.1078 158.8861 29.1078 157.2521 29.1078 155.9281 30.4328 155.9281 32.0658 155.9281 33.6988 157.2521 35.0238 158.8861 35.0238M154.2914 46.8118C155.8034 46.8118 157.0274 45.5868 157.0274 44.0758 157.0274 42.5648 155.8034 41.3398 154.2914 41.3398 154.2314 41.3398 154.1814 41.3708 154.1214 41.3748L154.1214 46.7768C154.1814 46.7818 154.2314 46.8118 154.2914 46.8118M160.7533 53.7508C160.7533 55.2688 161.9853 56.4998 163.5033 56.4998 165.0223 56.4998 166.2523 55.2688 166.2523 53.7508 166.2523 52.2328 165.0223 51.0018 163.5033 51.0018 161.9853 51.0018 160.7533 52.2328 160.7533 53.7508M154.9213 64.493C154.9213 65.91 156.0693 67.059 157.4863 67.059 158.9043 67.059 160.0533 65.91 160.0533 64.493 160.0533 63.076 158.9043 61.927 157.4863 61.927 156.0693 61.927 154.9213 63.076 154.9213 64.493M156.7152 78.9075C158.0462 78.9075 159.1252 77.8285 159.1252 76.4975 159.1252 75.1665 158.0462 74.0875 156.7152 74.0875 155.3852 74.0875 154.3062 75.1665 154.3062 76.4975 154.3062 77.8285 155.3852 78.9075 156.7152 78.9075M157.6127 92.0975C158.8997 92.0975 159.9447 91.0535 159.9447 89.7655 159.9447 88.4775 158.8997 87.4345 157.6127 87.4345 156.3247 87.4345 155.2807 88.4775 155.2807 89.7655 155.2807 91.0535 156.3247 92.0975 157.6127 92.0975M155.9144 104.9534C157.1664 104.9534 158.1824 103.9384 158.1824 102.6864 158.1824 101.4344 157.1664 100.4204 155.9144 100.4204 155.1664 100.4204 154.5334 100.8074 154.1214 101.3674L154.1214 104.0064C154.5334 104.5664 155.1664 104.9534 155.9144 104.9534M156.224 137.4461C156.224 136.2141 155.303 135.2371 154.121 135.0571L154.121 139.8361C155.303 139.6551 156.224 138.6781 156.224 137.4461M161.0521 128.1751C162.4261 128.1751 163.5401 127.0621 163.5401 125.6871 163.5401 124.3131 162.4261 123.1991 161.0521 123.1991 159.6781 123.1991 158.5641 124.3131 158.5641 125.6871 158.5641 127.0621 159.6781 128.1751 161.0521 128.1751M155.7748 115.4608C155.7748 114.4318 155.0668 113.6018 154.1218 113.3388L154.1218 117.5828C155.0668 117.3198 155.7748 116.4898 155.7748 115.4608M166.5765 114.2645C167.9645 114.2645 169.0915 113.1395 169.0915 111.7505 169.0915 110.3615 167.9645 109.2365 166.5765 109.2365 165.1885 109.2365 164.0615 110.3615 164.0615 111.7505 164.0615 113.1395 165.1885 114.2645 166.5765 114.2645M170.0834 100.2025C171.5074 100.2025 172.6624 99.0475 172.6624 97.6225 172.6624 96.1985 171.5074 95.0435 170.0834 95.0435 168.6584 95.0435 167.5034 96.1985 167.5034 97.6225 167.5034 99.0475 168.6584 100.2025 170.0834 100.2025M176.434 109.721C176.434 111.232 177.66 112.457 179.17 112.457 180.681 112.457 181.907 111.232 181.907 109.721 181.907 108.21 180.681 106.985 179.17 106.985 177.66 106.985 176.434 108.21 176.434 109.721M188.5092 98.2796C188.5092 96.7256 187.2482 95.4656 185.6952 95.4656 184.1412 95.4656 182.8812 96.7256 182.8812 98.2796 182.8812 99.8336 184.1412 101.0936 185.6952 101.0936 187.2482 101.0936 188.5092 99.8336 188.5092 98.2796M194.017 86.0335C194.017 84.4005 192.693 83.0755 191.059 83.0755 189.425 83.0755 188.102 84.4005 188.102 86.0335 188.102 87.6665 189.425 88.9915 191.059 88.9915 192.693 88.9915 194.017 87.6665 194.017 86.0335M178.6176 84.9759C177.1066 84.9759 175.8816 86.2009 175.8816 87.7119 175.8816 89.2229 177.1066 90.4479 178.6176 90.4479 180.1286 90.4479 181.3536 89.2229 181.3536 87.7119 181.3536 86.2009 180.1286 84.9759 178.6176 84.9759M166.3939 80.6307C166.3939 82.0767 167.5659 83.2497 169.0119 83.2497 170.4579 83.2497 171.6299 82.0767 171.6299 80.6307 171.6299 79.1847 170.4579 78.0127 169.0119 78.0127 167.5659 78.0127 166.3939 79.1847 166.3939 80.6307M173.1722 66.8138C173.1722 65.3108 171.9532 64.0908 170.4492 64.0908 168.9452 64.0908 167.7262 65.3108 167.7262 66.8138 167.7262 68.3178 168.9452 69.5368 170.4492 69.5368 171.9532 69.5368 173.1722 68.3178 173.1722 66.8138M183.0062 71.8875C181.4382 71.8875 180.1662 73.1585 180.1662 74.7275 180.1662 76.2965 181.4382 77.5685 183.0062 77.5685 184.5742 77.5685 185.8472 76.2965 185.8472 74.7275 185.8472 73.1585 184.5742 71.8875 183.0062 71.8875M182.473 59.2342C180.839 59.2342 179.516 60.5582 179.516 62.1922 179.516 63.8252 180.839 65.1492 182.473 65.1492 184.106 65.1492 185.43 63.8252 185.43 62.1922 185.43 60.5582 184.106 59.2342 182.473 59.2342M175.933 48.7698C174.308 48.7698 172.99 50.0878 172.99 51.7138 172.99 53.3408 174.308 54.6588 175.933 54.6588 177.561 54.6588 178.879 53.3408 178.879 51.7138 178.879 50.0878 177.561 48.7698 175.933 48.7698M165.2367 41.0697C165.2367 42.7027 166.5607 44.0277 168.1937 44.0277 169.8277 44.0277 171.1517 42.7027 171.1517 41.0697 171.1517 39.4357 169.8277 38.1117 168.1937 38.1117 166.5607 38.1117 165.2367 39.4357 165.2367 41.0697M171.4828 31.6488C173.1888 31.6488 174.5718 30.2658 174.5718 28.5608 174.5718 26.8548 173.1888 25.4718 171.4828 25.4718 169.7778 25.4718 168.3948 26.8548 168.3948 28.5608 168.3948 30.2658 169.7778 31.6488 171.4828 31.6488M181.3685 41.93C183.0815 41.93 184.4705 40.542 184.4705 38.829 184.4705 37.116 183.0815 35.727 181.3685 35.727 179.6555 35.727 178.2675 37.116 178.2675 38.829 178.2675 40.542 179.6555 41.93 181.3685 41.93M191.7543 50.6302C191.7543 48.9252 190.3713 47.5422 188.6653 47.5422 186.9603 47.5422 185.5783 48.9252 185.5783 50.6302 185.5783 52.3362 186.9603 53.7182 188.6653 53.7182 190.3713 53.7182 191.7543 52.3362 191.7543 50.6302M191.0912 62.8314C191.0912 64.5374 192.4742 65.9194 194.1792 65.9194 195.8842 65.9194 197.2682 64.5374 197.2682 62.8314 197.2682 61.1254 195.8842 59.7434 194.1792 59.7434 192.4742 59.7434 191.0912 61.1254 191.0912 62.8314M200.3392 74.3118C200.3392 72.6138 198.9622 71.2368 197.2642 71.2368 195.5662 71.2368 194.1892 72.6138 194.1892 74.3118 194.1892 76.0098 195.5662 77.3868 197.2642 77.3868 198.9622 77.3868 200.3392 76.0098 200.3392 74.3118M206.473 85.7283C206.473 84.0153 205.084 82.6263 203.371 82.6263 201.659 82.6263 200.271 84.0153 200.271 85.7283 200.271 87.4403 201.659 88.8293 203.371 88.8293 205.084 88.8293 206.473 87.4403 206.473 85.7283M202.7679 97.3812C202.7679 95.6902 201.3969 94.3192 199.7049 94.3192 198.0139 94.3192 196.6439 95.6902 196.6439 97.3812 196.6439 99.0722 198.0139 100.4432 199.7049 100.4432 201.3969 100.4432 202.7679 99.0722 202.7679 97.3812M207.2806 108.7708C207.2806 107.0578 205.8926 105.6698 204.1796 105.6698 202.4676 105.6698 201.0786 107.0578 201.0786 108.7708 201.0786 110.4838 202.4676 111.8718 204.1796 111.8718 205.8926 111.8718 207.2806 110.4838 207.2806 108.7708M192.3383 106.5003C190.6983 106.5003 189.3683 107.8303 189.3683 109.4713 189.3683 111.1113 190.6983 112.4413 192.3383 112.4413 193.9793 112.4413 195.3093 111.1113 195.3093 109.4713 195.3093 107.8303 193.9793 106.5003 192.3383 106.5003M174.6498 125.784C176.1458 125.784 177.3598 124.571 177.3598 123.074 177.3598 121.577 176.1458 120.364 174.6498 120.364 173.1528 120.364 171.9388 121.577 171.9388 123.074 171.9388 124.571 173.1528 125.784 174.6498 125.784M187.5922 118.8836C185.9962 118.8836 184.7002 120.1786 184.7002 121.7766 184.7002 123.3736 185.9962 124.6686 187.5922 124.6686 189.1912 124.6686 190.4862 123.3736 190.4862 121.7766 190.4862 120.1786 189.1912 118.8836 187.5922 118.8836M200.3197 118.0565C198.6147 118.0565 197.2317 119.4385 197.2317 121.1445 197.2317 122.8495 198.6147 124.2325 200.3197 124.2325 202.0247 124.2325 203.4087 122.8495 203.4087 121.1445 203.4087 119.4385 202.0247 118.0565 200.3197 118.0565M197.0111 136.5697C198.7161 136.5697 200.0991 135.1867 200.0991 133.4817 200.0991 131.7757 198.7161 130.3937 197.0111 130.3937 195.3051 130.3937 193.9221 131.7757 193.9221 133.4817 193.9221 135.1867 195.3051 136.5697 197.0111 136.5697M194.682 145.39C194.682 143.684 193.299 142.302 191.593 142.302 189.888 142.302 188.505 143.684 188.505 145.39 188.505 147.096 189.888 148.478 191.593 148.478 193.299 148.478 194.682 147.096 194.682 145.39M185.3148 154.0223C183.6098 154.0223 182.2278 155.4053 182.2278 157.1103 182.2278 158.8153 183.6098 160.1983 185.3148 160.1983 187.0218 160.1983 188.4038 158.8153 188.4038 157.1103 188.4038 155.4053 187.0218 154.0223 185.3148 154.0223M178.184 172.6951C179.897 172.6951 181.286 171.3071 181.286 169.5941 181.286 167.8811 179.897 166.4921 178.184 166.4921 176.471 166.4921 175.083 167.8811 175.083 169.5941 175.083 171.3071 176.471 172.6951 178.184 172.6951M172.0258 160.2474C173.6508 160.2474 174.9698 158.9294 174.9698 157.3024 174.9698 155.6764 173.6508 154.3584 172.0258 154.3584 170.3988 154.3584 169.0808 155.6764 169.0808 157.3024 169.0808 158.9294 170.3988 160.2474 172.0258 160.2474M177.8295 148.8436C179.4265 148.8436 180.7225 147.5486 180.7225 145.9506 180.7225 144.3536 179.4265 143.0586 177.8295 143.0586 176.2315 143.0586 174.9365 144.3536 174.9365 145.9506 174.9365 147.5486 176.2315 148.8436 177.8295 148.8436M183.515 131.3021C181.911 131.3021 180.61 132.6031 180.61 134.2081 180.61 135.8131 181.911 137.1141 183.515 137.1141 185.119 137.1141 186.42 135.8131 186.42 134.2081 186.42 132.6031 185.119 131.3021 183.515 131.3021M172.0326 135.7889C172.0326 134.2989 170.8256 133.0919 169.3366 133.0919 167.8466 133.0919 166.6386 134.2989 166.6386 135.7889 166.6386 137.2779 167.8466 138.4859 169.3366 138.4859 170.8256 138.4859 172.0326 137.2779 172.0326 135.7889M162.9359 150.1253C164.4329 150.1253 165.6459 148.9123 165.6459 147.4163 165.6459 145.9183 164.4329 144.7053 162.9359 144.7053 161.4399 144.7053 160.2259 145.9183 160.2259 147.4163 160.2259 148.9123 161.4399 150.1253 162.9359 150.1253M159.7885 159.1292C159.7885 157.6112 158.5575 156.3792 157.0385 156.3792 155.5195 156.3792 154.2895 157.6112 154.2895 159.1292 154.2895 160.6482 155.5195 161.8782 157.0385 161.8782 158.5575 161.8782 159.7885 160.6482 159.7885 159.1292M162.9564 168.1683C162.9564 169.8233 164.2984 171.1653 165.9534 171.1653 167.6084 171.1653 168.9504 169.8233 168.9504 168.1683 168.9504 166.5133 167.6084 165.1713 165.9534 165.1713 164.2984 165.1713 162.9564 166.5133 162.9564 168.1683M165.3275 183.2015C167.0405 183.2015 168.4295 181.8125 168.4295 180.1005 168.4295 178.3875 167.0405 176.9995 165.3275 176.9995 163.6145 176.9995 162.2255 178.3875 162.2255 180.1005 162.2255 181.8125 163.6145 183.2015 165.3275 183.2015M156.9291 173.2005C156.9291 171.6245 155.6801 170.3625 154.1211 170.2935L154.1211 176.1075C155.6801 176.0385 156.9291 174.7755 156.9291 173.2005M154.1215 189.4412C155.1645 188.9452 155.8985 187.9012 155.8985 186.6692 155.8985 185.4372 155.1645 184.3922 154.1215 183.8972L154.1215 189.4412zM14.7894 54.5467C13.0764 54.5467 11.6884 55.9347 11.6884 57.6477 11.6884 59.3607 13.0764 60.7497 14.7894 60.7497 16.5034 60.7497 17.8914 59.3607 17.8914 57.6477 17.8914 55.9347 16.5034 54.5467 14.7894 54.5467M15.9486 70.2855C15.9486 68.5875 14.5706 67.2105 12.8736 67.2105 11.1756 67.2105 9.7986 68.5875 9.7986 70.2855 9.7986 71.9835 11.1756 73.3605 12.8736 73.3605 14.5706 73.3605 15.9486 71.9835 15.9486 70.2855M5.9623 85.0819C7.6683 85.0819 9.0503 83.6989 9.0503 81.9939 9.0503 80.2879 7.6683 78.9059 5.9623 78.9059 4.2573 78.9059 2.8743 80.2879 2.8743 81.9939 2.8743 83.6989 4.2573 85.0819 5.9623 85.0819M8.1205 98.5208C9.8105 98.5208 11.1825 97.1498 11.1825 95.4588 11.1825 93.7678 9.8105 92.3968 8.1205 92.3968 6.4295 92.3968 5.0575 93.7678 5.0575 95.4588 5.0575 97.1498 6.4295 98.5208 8.1205 98.5208M4.0883 111.4383C5.7943 111.4383 7.1773 110.0553 7.1773 108.3503 7.1773 106.6453 5.7943 105.2623 4.0883 105.2623 2.3833 105.2623 1.0003 106.6453 1.0003 108.3503 1.0003 110.0553 2.3833 111.4383 4.0883 111.4383M15.6967 112.7894C17.3447 112.7894 18.6797 111.4534 18.6797 109.8054 18.6797 108.1574 17.3447 106.8214 15.6967 106.8214 14.0497 106.8214 12.7127 108.1574 12.7127 109.8054 12.7127 111.4534 14.0497 112.7894 15.6967 112.7894M8.101 125.5086C9.806 125.5086 11.189 124.1266 11.189 122.4206 11.189 120.7156 9.806 119.3326 8.101 119.3326 6.395 119.3326 5.013 120.7156 5.013 122.4206 5.013 124.1266 6.395 125.5086 8.101 125.5086M23.7826 123.9925C23.7826 122.3735 22.4706 121.0615 20.8506 121.0615 19.2326 121.0615 17.9196 122.3735 17.9196 123.9925 17.9196 125.6115 19.2326 126.9245 20.8506 126.9245 22.4706 126.9245 23.7826 125.6115 23.7826 123.9925M34.2279 128.3846C35.7249 128.3846 36.9389 127.1716 36.9389 125.6746 36.9389 124.1776 35.7249 122.9646 34.2279 122.9646 32.7319 122.9646 31.5179 124.1776 31.5179 125.6746 31.5179 127.1716 32.7319 128.3846 34.2279 128.3846M45.3636 137.1595C45.3636 135.6845 44.1686 134.4895 42.6936 134.4895 41.2176 134.4895 40.0226 135.6845 40.0226 137.1595 40.0226 138.6345 41.2176 139.8305 42.6936 139.8305 44.1686 139.8305 45.3636 138.6345 45.3636 137.1595M48.0238 149.6346C48.0238 148.1166 46.7938 146.8856 45.2748 146.8856 43.7568 146.8856 42.5258 148.1166 42.5258 149.6346 42.5258 151.1526 43.7568 152.3836 45.2748 152.3836 46.7938 152.3836 48.0238 151.1526 48.0238 149.6346M26.6937 140.328C28.3047 140.328 29.6117 139.022 29.6117 137.41 29.6117 135.798 28.3047 134.491 26.6937 134.491 25.0817 134.491 23.7747 135.798 23.7747 137.41 23.7747 139.022 25.0817 140.328 26.6937 140.328M12.684 139.1883C14.39 139.1883 15.773 137.8063 15.773 136.1003 15.773 134.3953 14.39 133.0123 12.684 133.0123 10.979 133.0123 9.596 134.3953 9.596 136.1003 9.596 137.8063 10.979 139.1883 12.684 139.1883M18.3373 152.5677C20.0423 152.5677 21.4253 151.1857 21.4253 149.4797 21.4253 147.7747 20.0423 146.3917 18.3373 146.3917 16.6313 146.3917 15.2493 147.7747 15.2493 149.4797 15.2493 151.1857 16.6313 152.5677 18.3373 152.5677M32.1332 152.6522C33.7522 152.6522 35.0652 151.3402 35.0652 149.7202 35.0652 148.1012 33.7522 146.7892 32.1332 146.7892 30.5132 146.7892 29.2012 148.1012 29.2012 149.7202 29.2012 151.3402 30.5132 152.6522 32.1332 152.6522M26.2396 166.035C27.9516 166.035 29.3406 164.647 29.3406 162.934 29.3406 161.222 27.9516 159.833 26.2396 159.833 24.5266 159.833 23.1376 161.222 23.1376 162.934 23.1376 164.647 24.5266 166.035 26.2396 166.035M39.9711 164.7987C41.6041 164.7987 42.9291 163.4737 42.9291 161.8407 42.9291 160.2067 41.6041 158.8827 39.9711 158.8827 38.3371 158.8827 37.0141 160.2067 37.0141 161.8407 37.0141 163.4737 38.3371 164.7987 39.9711 164.7987M37.5648 177.4212C39.2698 177.4212 40.6528 176.0392 40.6528 174.3332 40.6528 172.6272 39.2698 171.2452 37.5648 171.2452 35.8588 171.2452 34.4758 172.6272 34.4758 174.3332 34.4758 176.0392 35.8588 177.4212 37.5648 177.4212M50.1761 186.8831C51.8821 186.8831 53.2651 185.5011 53.2651 183.7951 53.2651 182.0901 51.8821 180.7071 50.1761 180.7071 48.4711 180.7071 47.0881 182.0901 47.0881 183.7951 47.0881 185.5011 48.4711 186.8831 50.1761 186.8831M60.1888 196.5037C61.7788 196.5037 63.0688 195.2147 63.0688 193.6247 63.0688 192.0337 61.7788 190.7447 60.1888 190.7447 58.5978 190.7447 57.3088 192.0337 57.3088 193.6247 57.3088 195.2147 58.5978 196.5037 60.1888 196.5037M65.6263 184.6116C67.2603 184.6116 68.5843 183.2866 68.5843 181.6536 68.5843 180.0206 67.2603 178.6966 65.6263 178.6966 63.9933 178.6966 62.6683 180.0206 62.6683 181.6536 62.6683 183.2866 63.9933 184.6116 65.6263 184.6116M73.264 196.8695C74.962 196.8695 76.339 195.4935 76.339 193.7945 76.339 192.0965 74.962 190.7195 73.264 190.7195 71.566 190.7195 70.189 192.0965 70.189 193.7945 70.189 195.4935 71.566 196.8695 73.264 196.8695M88.3959 197.619C88.3959 195.92 87.0199 194.544 85.3219 194.544 83.6229 194.544 82.2469 195.92 82.2469 197.619 82.2469 199.317 83.6229 200.694 85.3219 200.694 87.0199 200.694 88.3959 199.317 88.3959 197.619M101.472 200.1375C101.472 198.4315 100.09 197.0495 98.384 197.0495 96.679 197.0495 95.296 198.4315 95.296 200.1375 95.296 201.8435 96.679 203.2255 98.384 203.2255 100.09 203.2255 101.472 201.8435 101.472 200.1375M113.4242 203.703C115.1302 203.703 116.5122 202.32 116.5122 200.615 116.5122 198.909 115.1302 197.527 113.4242 197.527 111.7192 197.527 110.3352 198.909 110.3352 200.615 110.3352 202.32 111.7192 203.703 113.4242 203.703M105.5199 187.3387C103.8859 187.3387 102.5619 188.6627 102.5619 190.2967 102.5619 191.9297 103.8859 193.2547 105.5199 193.2547 107.1539 193.2547 108.4769 191.9297 108.4769 190.2967 108.4769 188.6627 107.1539 187.3387 105.5199 187.3387M93.0541 182.8831C91.4641 182.8831 90.1751 184.1731 90.1751 185.7631 90.1751 187.3531 91.4641 188.6421 93.0541 188.6421 94.6451 188.6421 95.9341 187.3531 95.9341 185.7631 95.9341 184.1731 94.6451 182.8831 93.0541 182.8831M83.4838 182.6746C83.4838 181.0916 82.1998 179.8086 80.6168 179.8086 79.0338 179.8086 77.7508 181.0916 77.7508 182.6746 77.7508 184.2576 79.0338 185.5406 80.6168 185.5406 82.1998 185.5406 83.4838 184.2576 83.4838 182.6746M77.0189 172.9696C78.5149 172.9696 79.7289 171.7566 79.7289 170.2596 79.7289 168.7626 78.5149 167.5496 77.0189 167.5496 75.5229 167.5496 74.3089 168.7626 74.3089 170.2596 74.3089 171.7566 75.5229 172.9696 77.0189 172.9696M71.2982 157.4842C71.2982 156.0592 70.1442 154.9052 68.7192 154.9052 67.2942 154.9052 66.1392 156.0592 66.1392 157.4842 66.1392 158.9082 67.2942 160.0642 68.7192 160.0642 70.1442 160.0642 71.2982 158.9082 71.2982 157.4842M63.265 172.5242C64.804 172.5242 66.053 171.2752 66.053 169.7362 66.053 168.1962 64.804 166.9482 63.265 166.9482 61.725 166.9482 60.477 168.1962 60.477 169.7362 60.477 171.2752 61.725 172.5242 63.265 172.5242M50.4271 168.8695C48.7931 168.8695 47.4691 170.1945 47.4691 171.8275 47.4691 173.4615 48.7931 174.7855 50.4271 174.7855 52.0601 174.7855 53.3841 173.4615 53.3841 171.8275 53.3841 170.1945 52.0601 168.8695 50.4271 168.8695M57.1322 159.4403C57.1322 157.9223 55.9012 156.6913 54.3832 156.6913 52.8642 156.6913 51.6332 157.9223 51.6332 159.4403 51.6332 160.9593 52.8642 162.1903 54.3832 162.1903 55.9012 162.1903 57.1322 160.9593 57.1322 159.4403M60.2982 146.4613C60.2982 145.0513 59.1542 143.9083 57.7442 143.9083 56.3342 143.9083 55.1912 145.0513 55.1912 146.4613 55.1912 147.8723 56.3342 149.0153 57.7442 149.0153 59.1542 149.0153 60.2982 147.8723 60.2982 146.4613M58.433 136.1571C59.743 136.1571 60.804 135.0951 60.804 133.7861 60.804 132.4771 59.743 131.4151 58.433 131.4151 57.123 131.4151 56.063 132.4771 56.063 133.7861 56.063 135.0951 57.123 136.1571 58.433 136.1571M60.642 119.0203C60.642 120.1783 61.58 121.1173 62.739 121.1173 63.897 121.1173 64.836 120.1783 64.836 119.0203 64.836 117.8623 63.897 116.9233 62.739 116.9233 61.58 116.9233 60.642 117.8623 60.642 119.0203M48.7797 126.471C50.1387 126.471 51.2417 125.368 51.2417 124.009 51.2417 122.649 50.1387 121.547 48.7797 121.547 47.4197 121.547 46.3177 122.649 46.3177 124.009 46.3177 125.368 47.4197 126.471 48.7797 126.471M37.6771 113.4837C37.6771 114.9007 38.8251 116.0497 40.2431 116.0497 41.6601 116.0497 42.8101 114.9007 42.8101 113.4837 42.8101 112.0667 41.6601 110.9177 40.2431 110.9177 38.8251 110.9177 37.6771 112.0667 37.6771 113.4837M30.8129 111.1864C30.8129 109.6684 29.5819 108.4374 28.0629 108.4374 26.5449 108.4374 25.3139 109.6684 25.3139 111.1864 25.3139 112.7054 26.5449 113.9354 28.0629 113.9354 29.5819 113.9354 30.8129 112.7054 30.8129 111.1864M22.6234 100.4998C24.1854 100.4998 25.4504 99.2338 25.4504 97.6728 25.4504 96.1108 24.1854 94.8458 22.6234 94.8458 21.0614 94.8458 19.7964 96.1108 19.7964 97.6728 19.7964 99.2338 21.0614 100.4998 22.6234 100.4998M40.5238 99.7967C40.5238 98.3717 39.3688 97.2167 37.9448 97.2167 36.5188 97.2167 35.3648 98.3717 35.3648 99.7967 35.3648 101.2207 36.5188 102.3757 37.9448 102.3757 39.3688 102.3757 40.5238 101.2207 40.5238 99.7967M54.4242 108.5272C54.4242 107.2612 53.3982 106.2352 52.1312 106.2352 50.8642 106.2352 49.8392 107.2612 49.8392 108.5272 49.8392 109.7942 50.8642 110.8192 52.1312 110.8192 53.3982 110.8192 54.4242 109.7942 54.4242 108.5272M56.6605 95.0487C56.6605 93.8117 55.6565 92.8087 54.4195 92.8087 53.1825 92.8087 52.1795 93.8117 52.1795 95.0487 52.1795 96.2857 53.1825 97.2887 54.4195 97.2887 55.6565 97.2887 56.6605 96.2857 56.6605 95.0487M55.8051 81.9368C57.0861 81.9368 58.1231 80.8988 58.1231 79.6188 58.1231 78.3378 57.0861 77.2998 55.8051 77.2998 54.5251 77.2998 53.4871 78.3378 53.4871 79.6188 53.4871 80.8988 54.5251 81.9368 55.8051 81.9368M46.5023 87.4969C46.5023 86.1149 45.3823 84.9959 44.0013 84.9959 42.6193 84.9959 41.4993 86.1149 41.4993 87.4969 41.4993 88.8779 42.6193 89.9979 44.0013 89.9979 45.3823 89.9979 46.5023 88.8779 46.5023 87.4969M33.8685 86.2342C33.8685 84.7232 32.6435 83.4982 31.1335 83.4982 29.6215 83.4982 28.3965 84.7232 28.3965 86.2342 28.3965 87.7452 29.6215 88.9702 31.1335 88.9702 32.6435 88.9702 33.8685 87.7452 33.8685 86.2342M21.1097 84.0643C21.1097 82.4313 19.7857 81.1063 18.1517 81.1063 16.5187 81.1063 15.1947 82.4313 15.1947 84.0643 15.1947 85.6973 16.5187 87.0223 18.1517 87.0223 19.7857 87.0223 21.1097 85.6973 21.1097 84.0643M26.9095 75.3743C28.4775 75.3743 29.7505 74.1033 29.7505 72.5343 29.7505 70.9653 28.4775 69.6943 26.9095 69.6943 25.3415 69.6943 24.0695 70.9653 24.0695 72.5343 24.0695 74.1033 25.3415 75.3743 26.9095 75.3743M41.1136 77.307C42.5596 77.307 43.7326 76.135 43.7326 74.688 43.7326 73.242 42.5596 72.07 41.1136 72.07 39.6676 72.07 38.4956 73.242 38.4956 74.688 38.4956 76.135 39.6676 77.307 41.1136 77.307M39.0326 64.6922C40.5506 64.6922 41.7816 63.4622 41.7816 61.9432 41.7816 60.4252 40.5506 59.1942 39.0326 59.1942 37.5136 59.1942 36.2836 60.4252 36.2836 61.9432 36.2836 63.4622 37.5136 64.6922 39.0326 64.6922M26.2572 62.3441C27.8982 62.3441 29.2282 61.0141 29.2282 59.3731 29.2282 57.7331 27.8982 56.4031 26.2572 56.4031 24.6162 56.4031 23.2862 57.7331 23.2862 59.3731 23.2862 61.0141 24.6162 62.3441 26.2572 62.3441M25.2396 45.6448C25.2396 43.9328 23.8506 42.5438 22.1386 42.5438 20.4266 42.5438 19.0376 43.9328 19.0376 45.6448 19.0376 47.3578 20.4266 48.7468 22.1386 48.7468 23.8506 48.7468 25.2396 47.3578 25.2396 45.6448M33.5111 34.0965C33.5111 32.3835 32.1221 30.9945 30.4091 30.9945 28.6971 30.9945 27.3081 32.3835 27.3081 34.0965 27.3081 35.8095 28.6971 37.1975 30.4091 37.1975 32.1221 37.1975 33.5111 35.8095 33.5111 34.0965M34.9135 51.349C36.5475 51.349 37.8705 50.025 37.8705 48.391 37.8705 46.758 36.5475 45.433 34.9135 45.433 33.2795 45.433 31.9565 46.758 31.9565 48.391 31.9565 50.025 33.2795 51.349 34.9135 51.349M44.0238 36.6048C42.4058 36.6048 41.0928 37.9168 41.0928 39.5358 41.0928 41.1548 42.4058 42.4678 44.0238 42.4678 45.6438 42.4678 46.9568 41.1548 46.9568 39.5358 46.9568 37.9168 45.6438 36.6048 44.0238 36.6048M51.0599 31.7166C51.0599 33.3286 52.3659 34.6346 53.9779 34.6346 55.5899 34.6346 56.8969 33.3286 56.8969 31.7166 56.8969 30.1046 55.5899 28.7976 53.9779 28.7976 52.3659 28.7976 51.0599 30.1046 51.0599 31.7166M41.6537 28.7635C43.3597 28.7635 44.7427 27.3805 44.7427 25.6755 44.7427 23.9705 43.3597 22.5865 41.6537 22.5865 39.9487 22.5865 38.5667 23.9705 38.5667 25.6755 38.5667 27.3805 39.9487 28.7635 41.6537 28.7635M52.556 14.2723C50.842 14.2723 49.454 15.6613 49.454 17.3733 49.454 19.0853 50.842 20.4743 52.556 20.4743 54.268 20.4743 55.657 19.0853 55.657 17.3733 55.657 15.6613 54.268 14.2723 52.556 14.2723M62.7924 10.9925C62.7924 12.6985 64.1754 14.0805 65.8804 14.0805 67.5864 14.0805 68.9694 12.6985 68.9694 10.9925 68.9694 9.2865 67.5864 7.9045 65.8804 7.9045 64.1754 7.9045 62.7924 9.2865 62.7924 10.9925M94.2924 2.9998C92.6154 2.9998 91.2574 4.3588 91.2574 6.0368 91.2574 7.7128 92.6154 9.0718 94.2924 9.0718 95.9694 9.0718 97.3284 7.7128 97.3284 6.0368 97.3284 4.3588 95.9694 2.9998 94.2924 2.9998M77.6088 7.9041C77.6088 9.5951 78.9798 10.9661 80.6718 10.9661 82.3618 10.9661 83.7328 9.5951 83.7328 7.9041 83.7328 6.2131 82.3618 4.8421 80.6718 4.8421 78.9798 4.8421 77.6088 6.2131 77.6088 7.9041"/>
    <path fill="#099CA0" d="M110.3431 6.0365C110.3431 4.3665 108.9891 3.0135 107.3201 3.0135 105.6501 3.0135 104.2961 4.3665 104.2961 6.0365 104.2961 7.7055 105.6501 9.0595 107.3201 9.0595 108.9891 9.0595 110.3431 7.7055 110.3431 6.0365M102.3969 20.4779C102.3969 18.9239 101.1359 17.6639 99.5829 17.6639 98.0279 17.6639 96.7689 18.9239 96.7689 20.4779 96.7689 22.0319 98.0279 23.2919 99.5829 23.2919 101.1359 23.2919 102.3969 22.0319 102.3969 20.4779M111.7338 22.4505C113.2528 22.4505 114.4828 21.2195 114.4828 19.7015 114.4828 18.1835 113.2528 16.9515 111.7338 16.9515 110.2148 16.9515 108.9858 18.1835 108.9858 19.7015 108.9858 21.2195 110.2148 22.4505 111.7338 22.4505M119.9066 36.2464C119.9066 34.8214 118.7526 33.6664 117.3276 33.6664 115.9026 33.6664 114.7486 34.8214 114.7486 36.2464 114.7486 37.6704 115.9026 38.8254 117.3276 38.8254 118.7526 38.8254 119.9066 37.6704 119.9066 36.2464M133.5873 34.637C133.5873 33.155 132.3853 31.953 130.9033 31.953 129.4213 31.953 128.2203 33.155 128.2203 34.637 128.2203 36.119 129.4213 37.321 130.9033 37.321 132.3853 37.321 133.5873 36.119 133.5873 34.637M136.89 25.3465C138.502 25.3465 139.809 24.0395 139.809 22.4285 139.809 20.8155 138.502 19.5095 136.89 19.5095 135.279 19.5095 133.972 20.8155 133.972 22.4285 133.972 24.0395 135.279 25.3465 136.89 25.3465M126.7162 22.5286C126.7162 20.9676 125.4502 19.7016 123.8892 19.7016 122.3272 19.7016 121.0612 20.9676 121.0612 22.5286 121.0612 24.0906 122.3272 25.3566 123.8892 25.3566 125.4502 25.3566 126.7162 24.0906 126.7162 22.5286M120.9886 9.951C122.6586 9.951 124.0116 8.598 124.0116 6.929 124.0116 5.259 122.6586 3.905 120.9886 3.905 119.3196 3.905 117.9666 5.259 117.9666 6.929 117.9666 8.598 119.3196 9.951 120.9886 9.951M132.8285 13.0526C134.5195 13.0526 135.8915 11.6816 135.8915 9.9906 135.8915 8.2996 134.5195 6.9286 132.8285 6.9286 131.1385 6.9286 129.7665 8.2996 129.7665 9.9906 129.7665 11.6816 131.1385 13.0526 132.8285 13.0526M149.0883 12.1473C149.0883 10.4413 147.7053 9.0593 145.9993 9.0593 144.2943 9.0593 142.9113 10.4413 142.9113 12.1473 142.9113 13.8533 144.2943 15.2353 145.9993 15.2353 147.7053 15.2353 149.0883 13.8533 149.0883 12.1473M152.1537 23.5472C152.1537 21.8992 150.8177 20.5632 149.1707 20.5632 147.5227 20.5632 146.1867 21.8992 146.1867 23.5472 146.1867 25.1942 147.5227 26.5302 149.1707 26.5302 150.8177 26.5302 152.1537 25.1942 152.1537 23.5472M154.0951 41.3743C152.6671 41.4673 151.5301 42.6253 151.5301 44.0763 151.5301 45.5263 152.6671 46.6853 154.0951 46.7773L154.0951 41.3743zM154.0951 101.3675C153.8181 101.7435 153.6221 102.1835 153.6221 102.6865 153.6221 103.1895 153.8181 103.6305 154.0951 104.0065L154.0951 101.3675zM144.6752 97.637C144.6752 96.579 143.8182 95.722 142.7612 95.722 141.7032 95.722 140.8472 96.579 140.8472 97.637 140.8472 98.694 141.7032 99.551 142.7612 99.551 143.8182 99.551 144.6752 98.694 144.6752 97.637M140.6039 114.6883C141.6469 114.6883 142.4929 113.8433 142.4929 112.8003 142.4929 111.7573 141.6469 110.9123 140.6039 110.9123 139.5619 110.9123 138.7159 111.7573 138.7159 112.8003 138.7159 113.8433 139.5619 114.6883 140.6039 114.6883M128.4828 107.6595C129.2888 107.6595 129.9408 107.0065 129.9408 106.2015 129.9408 105.3965 129.2888 104.7435 128.4828 104.7435 127.6768 104.7435 127.0248 105.3965 127.0248 106.2015 127.0248 107.0065 127.6768 107.6595 128.4828 107.6595M129.3636 90.4666C130.2336 90.4666 130.9386 89.7616 130.9386 88.8916 130.9386 88.0216 130.2336 87.3166 129.3636 87.3166 128.4936 87.3166 127.7896 88.0216 127.7896 88.8916 127.7896 89.7616 128.4936 90.4666 129.3636 90.4666M145.7289 83.1844C145.7289 82.0554 144.8139 81.1394 143.6839 81.1394 142.5539 81.1394 141.6389 82.0554 141.6389 83.1844 141.6389 84.3134 142.5539 85.2294 143.6839 85.2294 144.8139 85.2294 145.7289 84.3134 145.7289 83.1844M144.0179 66.869C142.7739 66.869 141.7649 67.878 141.7649 69.122 141.7649 70.367 142.7739 71.376 144.0179 71.376 145.2619 71.376 146.2709 70.367 146.2709 69.122 146.2709 67.878 145.2619 66.869 144.0179 66.869M134.4935 61.3524C135.7515 61.3524 136.7715 60.3314 136.7715 59.0734 136.7715 57.8134 135.7515 56.7934 134.4935 56.7934 133.2345 56.7934 132.2135 57.8134 132.2135 59.0734 132.2135 60.3314 133.2345 61.3524 134.4935 61.3524M150.9662 55.5648C150.9662 54.1618 149.8282 53.0238 148.4262 53.0238 147.0232 53.0238 145.8862 54.1618 145.8862 55.5648 145.8862 56.9678 147.0232 58.1058 148.4262 58.1058 149.8282 58.1058 150.9662 56.9678 150.9662 55.5648M147.6146 34.576C147.6146 33.043 146.3726 31.801 144.8396 31.801 143.3066 31.801 142.0636 33.043 142.0636 34.576 142.0636 36.109 143.3066 37.351 144.8396 37.351 146.3726 37.351 147.6146 36.109 147.6146 34.576M139.2367 48.4808C140.6537 48.4808 141.8017 47.3318 141.8017 45.9148 141.8017 44.4968 140.6537 43.3478 139.2367 43.3478 137.8187 43.3478 136.6707 44.4968 136.6707 45.9148 136.6707 47.3318 137.8187 48.4808 139.2367 48.4808M125.4379 50.2591C126.7699 50.2591 127.8479 49.1801 127.8479 47.8491 127.8479 46.5181 126.7699 45.4401 125.4379 45.4401 124.1079 45.4401 123.0289 46.5181 123.0289 47.8491 123.0289 49.1801 124.1079 50.2591 125.4379 50.2591M120.9886 64.4691C122.1106 64.4691 123.0206 63.5591 123.0206 62.4371 123.0206 61.3151 122.1106 60.4061 120.9886 60.4061 119.8666 60.4061 118.9576 61.3151 118.9576 62.4371 118.9576 63.5591 119.8666 64.4691 120.9886 64.4691M111.7338 52.9373C112.9858 52.9373 114.0008 51.9223 114.0008 50.6703 114.0008 49.4183 112.9858 48.4043 111.7338 48.4043 110.4818 48.4043 109.4678 49.4183 109.4678 50.6703 109.4678 51.9223 110.4818 52.9373 111.7338 52.9373M106.3051 40.1063C106.3051 38.7313 105.1921 37.6183 103.8181 37.6183 102.4431 37.6183 101.3291 38.7313 101.3291 40.1063 101.3291 41.4813 102.4431 42.5943 103.8181 42.5943 105.1921 42.5943 106.3051 41.4813 106.3051 40.1063M92.2904 32.2713C92.2904 33.7393 93.4804 34.9293 94.9474 34.9293 96.4164 34.9293 97.6054 33.7393 97.6054 32.2713 97.6054 30.8033 96.4164 29.6133 94.9474 29.6133 93.4804 29.6133 92.2904 30.8033 92.2904 32.2713M81.4301 31.7557C79.9611 31.7557 78.7731 32.9457 78.7731 34.4137 78.7731 35.8807 79.9611 37.0707 81.4301 37.0707 82.8971 37.0707 84.0871 35.8807 84.0871 34.4137 84.0871 32.9457 82.8971 31.7557 81.4301 31.7557M84.0892 21.2469C84.0892 22.8079 85.3552 24.0739 86.9172 24.0739 88.4792 24.0739 89.7442 22.8079 89.7442 21.2469 89.7442 19.6849 88.4792 18.4199 86.9172 18.4199 85.3552 18.4199 84.0892 19.6849 84.0892 21.2469M77.6088 22.2708C77.6088 20.6738 76.3138 19.3788 74.7158 19.3788 73.1188 19.3788 71.8238 20.6738 71.8238 22.2708 71.8238 23.8688 73.1188 25.1638 74.7158 25.1638 76.3138 25.1638 77.6088 23.8688 77.6088 22.2708M60.0062 23.3177C60.0062 24.9587 61.3362 26.2887 62.9772 26.2887 64.6172 26.2887 65.9472 24.9587 65.9472 23.3177 65.9472 21.6767 64.6172 20.3467 62.9772 20.3467 61.3362 20.3467 60.0062 21.6767 60.0062 23.3177M68.2045 32.4656C66.6935 32.4656 65.4675 33.6906 65.4675 35.2016 65.4675 36.7126 66.6935 37.9386 68.2045 37.9386 69.7145 37.9386 70.9405 36.7126 70.9405 35.2016 70.9405 33.6906 69.7145 32.4656 68.2045 32.4656M56.3822 44.596C56.3822 46.085 57.5892 47.293 59.0782 47.293 60.5692 47.293 61.7762 46.085 61.7762 44.596 61.7762 43.106 60.5692 41.899 59.0782 41.899 57.5892 41.899 56.3822 43.106 56.3822 44.596M46.4301 52.8133C46.4301 54.3103 47.6431 55.5233 49.1411 55.5233 50.6361 55.5233 51.8511 54.3103 51.8511 52.8133 51.8511 51.3163 50.6361 50.1033 49.1411 50.1033 47.6431 50.1033 46.4301 51.3163 46.4301 52.8133M55.9222 65.9793C55.9222 64.5903 54.7962 63.4653 53.4062 63.4653 52.0192 63.4653 50.8932 64.5903 50.8932 65.9793 50.8932 67.3683 52.0192 68.4933 53.4062 68.4933 54.7962 68.4933 55.9222 67.3683 55.9222 65.9793M67.3832 57.5125C67.3832 56.1675 66.2922 55.0765 64.9462 55.0765 63.6022 55.0765 62.5102 56.1675 62.5102 57.5125 62.5102 58.8585 63.6022 59.9485 64.9462 59.9485 66.2922 59.9485 67.3832 58.8585 67.3832 57.5125M74.5482 50.3031C75.9222 50.3031 77.0362 49.1891 77.0362 47.8151 77.0362 46.4411 75.9222 45.3271 74.5482 45.3271 73.1742 45.3271 72.0602 46.4411 72.0602 47.8151 72.0602 49.1891 73.1742 50.3031 74.5482 50.3031M88.6283 48.2601C89.9603 48.2601 91.0383 47.1801 91.0383 45.8491 91.0383 44.5181 89.9603 43.4401 88.6283 43.4401 87.2973 43.4401 86.2183 44.5181 86.2183 45.8491 86.2183 47.1801 87.2973 48.2601 88.6283 48.2601M99.098 55.2513C99.098 54.0643 98.136 53.1023 96.949 53.1023 95.762 53.1023 94.799 54.0643 94.799 55.2513 94.799 56.4383 95.762 57.4003 96.949 57.4003 98.136 57.4003 99.098 56.4383 99.098 55.2513M109.182 64.9349C109.182 63.9059 108.348 63.0729 107.32 63.0729 106.291 63.0729 105.457 63.9059 105.457 64.9349 105.457 65.9629 106.291 66.7969 107.32 66.7969 108.348 66.7969 109.182 65.9629 109.182 64.9349M129.8636 72.1175C128.8136 72.1175 127.9626 72.9685 127.9626 74.0185 127.9626 75.0685 128.8136 75.9205 129.8636 75.9205 130.9136 75.9205 131.7646 75.0685 131.7646 74.0185 131.7646 72.9685 130.9136 72.1175 129.8636 72.1175M113.6058 79.8978C114.4318 79.8978 115.1028 79.2278 115.1028 78.4008 115.1028 77.5738 114.4318 76.9038 113.6058 76.9038 112.7788 76.9038 112.1088 77.5738 112.1088 78.4008 112.1088 79.2278 112.7788 79.8978 113.6058 79.8978M114.9271 96.6424C115.4881 96.6424 115.9411 96.1874 115.9411 95.6274 115.9411 95.0674 115.4881 94.6134 114.9271 94.6134 114.3661 94.6134 113.9121 95.0674 113.9121 95.6274 113.9121 96.1874 114.3661 96.6424 114.9271 96.6424M96.89 88.283C97.537 88.283 98.061 87.758 98.061 87.112 98.061 86.465 97.537 85.941 96.89 85.941 96.244 85.941 95.719 86.465 95.719 87.112 95.719 87.758 96.244 88.283 96.89 88.283M96.0248 70.8607C96.0248 69.9037 95.2498 69.1287 94.2928 69.1287 93.3368 69.1287 92.5608 69.9037 92.5608 70.8607 92.5608 71.8167 93.3368 72.5927 94.2928 72.5927 95.2498 72.5927 96.0248 71.8167 96.0248 70.8607M81.3783 59.2811C80.2063 59.2811 79.2563 60.2311 79.2563 61.4041 79.2563 62.5761 80.2063 63.5271 81.3783 63.5271 82.5503 63.5271 83.5013 62.5761 83.5013 61.4041 83.5013 60.2311 82.5503 59.2811 81.3783 59.2811M68.5433 69.1029C67.3493 69.1029 66.3803 70.0709 66.3803 71.2649 66.3803 72.4589 67.3493 73.4279 68.5433 73.4279 69.7373 73.4279 70.7043 72.4589 70.7043 71.2649 70.7043 70.0709 69.7373 69.1029 68.5433 69.1029M83.0736 79.1942C83.0736 78.2372 82.2986 77.4632 81.3416 77.4632 80.3856 77.4632 79.6096 78.2372 79.6096 79.1942 79.6096 80.1512 80.3856 80.9262 81.3416 80.9262 82.2986 80.9262 83.0736 80.1512 83.0736 79.1942M70.1117 87.7269C70.1117 86.6629 69.2497 85.7999 68.1837 85.7999 67.1207 85.7999 66.2577 86.6629 66.2577 87.7269 66.2577 88.7909 67.1207 89.6539 68.1837 89.6539 69.2497 89.6539 70.1117 88.7909 70.1117 87.7269M81.6547 98.5531C82.4467 98.5531 83.0877 97.9121 83.0877 97.1211 83.0877 96.3301 82.4467 95.6901 81.6547 95.6901 80.8647 95.6901 80.2227 96.3301 80.2227 97.1211 80.2227 97.9121 80.8647 98.5531 81.6547 98.5531M66.7435 105.5994C67.7935 105.5994 68.6445 104.7484 68.6445 103.6984 68.6445 102.6484 67.7935 101.7974 66.7435 101.7974 65.6935 101.7974 64.8425 102.6484 64.8425 103.6984 64.8425 104.7484 65.6935 105.5994 66.7435 105.5994M77.8763 116.5374C78.7813 116.5374 79.5173 115.8024 79.5173 114.8964 79.5173 113.9914 78.7813 113.2564 77.8763 113.2564 76.9703 113.2564 76.2353 113.9914 76.2353 114.8964 76.2353 115.8024 76.9703 116.5374 77.8763 116.5374M95.1107 110.5491C95.1107 109.9591 94.6317 109.4821 94.0437 109.4821 93.4547 109.4821 92.9757 109.9591 92.9757 110.5491 92.9757 111.1381 93.4547 111.6151 94.0437 111.6151 94.6317 111.6151 95.1107 111.1381 95.1107 110.5491M102.7523 124.0985C101.9473 124.0985 101.2943 124.7515 101.2943 125.5565 101.2943 126.3615 101.9473 127.0145 102.7523 127.0145 103.5583 127.0145 104.2113 126.3615 104.2113 125.5565 104.2113 124.7515 103.5583 124.0985 102.7523 124.0985M89.557 128.117C89.557 127.175 88.793 126.411 87.852 126.411 86.91 126.411 86.146 127.175 86.146 128.117 86.146 129.059 86.91 129.823 87.852 129.823 88.793 129.823 89.557 129.059 89.557 128.117M75.1644 130.3983C75.1644 129.2763 74.2554 128.3663 73.1334 128.3663 72.0114 128.3663 71.1014 129.2763 71.1014 130.3983 71.1014 131.5203 72.0114 132.4303 73.1334 132.4303 74.2554 132.4303 75.1644 131.5203 75.1644 130.3983M73.891 144.39C73.891 143.117 72.858 142.084 71.585 142.084 70.312 142.084 69.281 143.117 69.281 144.39 69.281 145.663 70.312 146.696 71.585 146.696 72.858 146.696 73.891 145.663 73.891 144.39M87.6039 143.2596C87.6039 142.1016 86.6659 141.1626 85.5079 141.1626 84.3489 141.1626 83.4109 142.1016 83.4109 143.2596 83.4109 144.4176 84.3489 145.3566 85.5079 145.3566 86.6659 145.3566 87.6039 144.4176 87.6039 143.2596M99.9779 142.264C101.0349 142.264 101.8919 141.407 101.8919 140.35 101.8919 139.292 101.0349 138.435 99.9779 138.435 98.9199 138.435 98.0629 139.292 98.0629 140.35 98.0629 141.407 98.9199 142.264 99.9779 142.264M112.849 149.7635C112.849 148.5615 111.875 147.5885 110.674 147.5885 109.472 147.5885 108.498 148.5615 108.498 149.7635 108.498 150.9645 109.472 151.9385 110.674 151.9385 111.875 151.9385 112.849 150.9645 112.849 149.7635M123.4144 159.6649C123.4144 158.3049 122.3114 157.2029 120.9524 157.2029 119.5934 157.2029 118.4904 158.3049 118.4904 159.6649 118.4904 161.0239 119.5934 162.1269 120.9524 162.1269 122.3114 162.1269 123.4144 161.0239 123.4144 159.6649M109.2465 164.3651C109.2465 162.9831 108.1265 161.8641 106.7445 161.8641 105.3635 161.8641 104.2435 162.9831 104.2435 164.3651 104.2435 165.7461 105.3635 166.8661 106.7445 166.8661 108.1265 166.8661 109.2465 165.7461 109.2465 164.3651M98.5209 155.3529C98.5209 154.0719 97.4819 153.0339 96.2019 153.0339 94.9209 153.0339 93.8819 154.0719 93.8819 155.3529 93.8819 156.6329 94.9209 157.6709 96.2019 157.6709 97.4819 157.6709 98.5209 156.6329 98.5209 155.3529M85.2152 157.5814C85.2152 156.2284 84.1182 155.1324 82.7652 155.1324 81.4132 155.1324 80.3172 156.2284 80.3172 157.5814 80.3172 158.9344 81.4132 160.0304 82.7652 160.0304 84.1182 160.0304 85.2152 158.9344 85.2152 157.5814M91.8617 173.1634C93.3227 173.1634 94.5077 171.9794 94.5077 170.5194 94.5077 169.0584 93.3227 167.8744 91.8617 167.8744 90.4017 167.8744 89.2167 169.0584 89.2167 170.5194 89.2167 171.9794 90.4017 173.1634 91.8617 173.1634M101.9935 177.5506C101.9935 179.0616 103.2195 180.2876 104.7295 180.2876 106.2405 180.2876 107.4655 179.0616 107.4655 177.5506 107.4655 176.0406 106.2405 174.8146 104.7295 174.8146 103.2195 174.8146 101.9935 176.0406 101.9935 177.5506M118.3636 171.096C116.8666 171.096 115.6536 172.31 115.6536 173.806 115.6536 175.303 116.8666 176.516 118.3636 176.516 119.8596 176.516 121.0736 175.303 121.0736 173.806 121.0736 172.31 119.8596 171.096 118.3636 171.096M117.5922 190.2445C119.2112 190.2445 120.5242 188.9325 120.5242 187.3135 120.5242 185.6945 119.2112 184.3815 117.5922 184.3815 115.9732 184.3815 114.6602 185.6945 114.6602 187.3135 114.6602 188.9325 115.9732 190.2445 117.5922 190.2445M130.0404 186.4158C131.6444 186.4158 132.9454 185.1148 132.9454 183.5108 132.9454 181.9058 131.6444 180.6048 130.0404 180.6048 128.4354 180.6048 127.1344 181.9058 127.1344 183.5108 127.1344 185.1148 128.4354 186.4158 130.0404 186.4158M127.4613 200.1116C129.1663 200.1116 130.5493 198.7286 130.5493 197.0236 130.5493 195.3176 129.1663 193.9356 127.4613 193.9356 125.7563 193.9356 124.3733 195.3176 124.3733 197.0236 124.3733 198.7286 125.7563 200.1116 127.4613 200.1116M140.7836 196.45C142.4816 196.45 143.8586 195.073 143.8586 193.375 143.8586 191.677 142.4816 190.3 140.7836 190.3 139.0856 190.3 137.7086 191.677 137.7086 193.375 137.7086 195.073 139.0856 196.45 140.7836 196.45M144.9291 178.8431C144.9291 177.2381 143.6281 175.9371 142.0241 175.9371 140.4201 175.9371 139.1181 177.2381 139.1181 178.8431 139.1181 180.4471 140.4201 181.7481 142.0241 181.7481 143.6281 181.7481 144.9291 180.4471 144.9291 178.8431M131.5599 166.5794C130.0699 166.5794 128.8629 167.7864 128.8629 169.2754 128.8629 170.7654 130.0699 171.9724 131.5599 171.9724 133.0479 171.9724 134.2559 170.7654 134.2559 169.2754 134.2559 167.7864 133.0479 166.5794 131.5599 166.5794M136.9603 154.6136C136.9603 153.2536 135.8563 152.1516 134.4973 152.1516 133.1383 152.1516 132.0353 153.2536 132.0353 154.6136 132.0353 155.9726 133.1383 157.0756 134.4973 157.0756 135.8563 157.0756 136.9603 155.9726 136.9603 154.6136M139.8324 138.994C139.8324 137.771 138.8414 136.78 137.6174 136.78 136.3944 136.78 135.4034 137.771 135.4034 138.994 135.4034 140.217 136.3944 141.208 137.6174 141.208 138.8414 141.208 139.8324 140.217 139.8324 138.994M126.8363 144.4149C126.8363 143.2279 125.8743 142.2659 124.6883 142.2659 123.5013 142.2659 122.5393 143.2279 122.5393 144.4149 122.5393 145.6019 123.5013 146.5639 124.6883 146.5639 125.8743 146.5639 126.8363 145.6019 126.8363 144.4149M115.7826 135.6527C116.7676 135.6527 117.5666 134.8537 117.5666 133.8687 117.5666 132.8827 116.7676 132.0847 115.7826 132.0847 114.7976 132.0847 113.9996 132.8827 113.9996 133.8687 113.9996 134.8537 114.7976 135.6527 115.7826 135.6527M114.2084 115.9349C114.2084 116.6239 114.7684 117.1839 115.4574 117.1839 116.1474 117.1839 116.7074 116.6239 116.7074 115.9349 116.7074 115.2449 116.1474 114.6859 115.4574 114.6859 114.7684 114.6859 114.2084 115.2449 114.2084 115.9349M131.2289 125.3665C131.2289 124.3815 130.4299 123.5825 129.4449 123.5825 128.4589 123.5825 127.6619 124.3815 127.6619 125.3665 127.6619 126.3515 128.4589 127.1505 129.4449 127.1505 130.4299 127.1505 131.2289 126.3515 131.2289 125.3665M147.2123 126.7928C147.2123 125.5988 146.2453 124.6308 145.0513 124.6308 143.8573 124.6308 142.8893 125.5988 142.8893 126.7928 142.8893 127.9868 143.8573 128.9548 145.0513 128.9548 146.2453 128.9548 147.2123 127.9868 147.2123 126.7928M150.0668 149.5545C150.0668 148.1585 148.9348 147.0275 147.5398 147.0275 146.1438 147.0275 145.0118 148.1585 145.0118 149.5545 145.0118 150.9505 146.1438 152.0825 147.5398 152.0825 148.9348 152.0825 150.0668 150.9505 150.0668 149.5545M154.0951 135.057C153.9721 135.038 153.8631 134.984 153.7361 134.984 152.3761 134.984 151.2731 136.087 151.2731 137.446 151.2731 138.806 152.3761 139.909 153.7361 139.909 153.8631 139.909 153.9721 139.854 154.0951 139.836L154.0951 135.057zM154.0951 113.3387C153.9041 113.2857 153.7161 113.2207 153.5081 113.2207 152.2721 113.2207 151.2681 114.2237 151.2681 115.4607 151.2681 116.6977 152.2721 117.7007 153.5081 117.7007 153.7161 117.7007 153.9041 117.6357 154.0951 117.5827L154.0951 113.3387zM147.0052 164.2005C147.0052 162.7035 145.7922 161.4905 144.2942 161.4905 142.7982 161.4905 141.5852 162.7035 141.5852 164.2005 141.5852 165.6965 142.7982 166.9095 144.2942 166.9095 145.7922 166.9095 147.0052 165.6965 147.0052 164.2005M154.0951 170.2938C154.0511 170.2918 154.0151 170.2688 153.9711 170.2688 152.3521 170.2688 151.0391 171.5808 151.0391 173.2008 151.0391 174.8188 152.3521 176.1318 153.9711 176.1318 154.0151 176.1318 154.0511 176.1088 154.0951 176.1068L154.0951 170.2938zM154.0951 183.8968C153.6941 183.7068 153.2581 183.5808 152.7841 183.5808 151.0781 183.5808 149.6971 184.9638 149.6971 186.6688 149.6971 188.3748 151.0781 189.7568 152.7841 189.7568 153.2581 189.7568 153.6941 189.6318 154.0951 189.4408L154.0951 183.8968z"/>
  </g>
</svg>
