<svg xmlns="http://www.w3.org/2000/svg" width="112" height="112" viewBox="0 0 112 112">
  <g fill="none" fill-rule="evenodd">
    <path fill="#D10B4F" d="M103.0616 85.2041C103.8096 84.3221 103.7016 83.0001 102.8186 82.2521 101.9366 81.5041 100.6156 81.6131 99.8676 82.4951 99.1196 83.3771 99.2276 84.6991 100.1096 85.4471 100.9926 86.1951 102.3136 86.0861 103.0616 85.2041M94.4308 85.5606C93.5488 84.8126 92.2268 84.9216 91.4788 85.8036 90.7308 86.6856 90.8398 88.0076 91.7218 88.7556 92.6048 89.5036 93.9258 89.3946 94.6738 88.5126 95.4218 87.6306 95.3138 86.3096 94.4308 85.5606M82.5509 92.0918C83.4379 92.8428 84.7649 92.7338 85.5159 91.8478 86.2679 90.9618 86.1579 89.6338 85.2719 88.8838 84.3859 88.1318 83.0589 88.2408 82.3079 89.1278 81.5569 90.0128 81.6649 91.3408 82.5509 92.0918M84.8253 82.9512C85.6663 83.6642 86.9273 83.5612 87.6403 82.7202 88.3533 81.8782 88.2503 80.6182 87.4093 79.9052 86.5673 79.1922 85.3073 79.2952 84.5943 80.1372 83.8813 80.9782 83.9843 82.2382 84.8253 82.9512M92.8302 79.5982C93.6562 80.2992 94.8942 80.1972 95.5952 79.3712 96.2962 78.5442 96.1932 77.3062 95.3672 76.6052 94.5412 75.9052 93.3032 76.0072 92.6022 76.8332 91.9012 77.6602 92.0042 78.8972 92.8302 79.5982M84.5636 73.7285C85.3376 74.3855 86.4986 74.2895 87.1546 73.5155 87.8106 72.7415 87.7156 71.5815 86.9416 70.9245 86.1676 70.2695 85.0066 70.3635 84.3506 71.1385 83.6946 71.9125 83.7906 73.0725 84.5636 73.7285M78.9864 77.0054C79.6524 76.2194 79.5544 75.0434 78.7694 74.3774 77.9844 73.7114 76.8074 73.8084 76.1414 74.5934 75.4754 75.3794 75.5724 76.5554 76.3584 77.2214 77.1434 77.8874 78.3204 77.7904 78.9864 77.0054M76.6603 83.0708C75.9343 83.9268 76.0403 85.2098 76.8963 85.9358 77.7523 86.6618 79.0353 86.5558 79.7613 85.6998 80.4873 84.8438 80.3813 83.5608 79.5253 82.8348 78.6693 82.1088 77.3863 82.2148 76.6603 83.0708M71.2921 91.8868C72.1791 92.6378 73.5061 92.5288 74.2571 91.6428 75.0091 90.7568 74.8991 89.4298 74.0131 88.6788 73.1271 87.9278 71.8001 88.0358 71.0491 88.9228 70.2971 89.8078 70.4061 91.1358 71.2921 91.8868M71.3351 83.0298C72.0261 82.2148 71.9341 81.0138 71.1571 80.2948L68.6071 83.3018C69.4441 83.9498 70.6451 83.8448 71.3351 83.0298M62.7589 90.1993C63.5159 90.4003 64.3539 90.1823 64.8949 89.5453 65.4349 88.9073 65.5139 88.0453 65.1919 87.3313L62.7589 90.1993z"/>
    <path fill="#D10B4F" d="M12.2870237 23.2969C12.9530237 22.5119 12.8560237 21.3349 12.0700237 20.6689 11.2850237 20.0029 10.1080237 20.0999 9.44202373 20.8849 8.77602373 21.6709 8.87402373 22.8469 9.65902373 23.5129 10.4440237 24.1789 11.6210237 24.0819 12.2870237 23.2969M7.7403 32.856C8.6223 33.604 9.9433 33.495 10.6913 32.613 11.4403 31.731 11.3313 30.409 10.4493 29.661 9.5663 28.913 8.2453 29.021 7.4973 29.904 6.7493 30.786 6.8573 32.107 7.7403 32.856M10.1134 43.2823C10.9964 44.0303 12.3174 43.9213 13.0654 43.0393 13.8134 42.1573 13.7054 40.8353 12.8224 40.0873 11.9404 39.3393 10.6184 39.4483 9.8704 40.3303 9.1224 41.2123 9.2314 42.5343 10.1134 43.2823M12.689793 50.4429539C13.511793 51.1399539 14.745793 51.0389539 15.442793 50.2159539 16.139793 49.3939539 16.038793 48.1609539 15.215793 47.4639539 14.392793 46.7659539 13.161793 46.8669539 12.462793 47.6899539 11.765793 48.5129539 11.867793 49.7449539 12.689793 50.4429539M19.7085135 47.5357722C20.5535135 48.2527722 21.8195135 48.1477722 22.5355135 47.3037722 23.2525135 46.4587722 23.1475135 45.1927722 22.3035135 44.4757722 21.4585135 43.7597722 20.1915135 43.8637722 19.4765135 44.7077722 18.7595135 45.5537722 18.8635135 46.8197722 19.7085135 47.5357722M17.6759 58.5747C18.5539 59.3197 19.8699 59.2117 20.6149 58.3327 21.3609 57.4537 21.2519 56.1377 20.3729 55.3937 19.4949 54.6487 18.1789 54.7567 17.4339 55.6357 16.6889 56.5137 16.7969 57.8297 17.6759 58.5747M25.1739 65.5996C25.9189 64.7216 25.8119 63.4056 24.9329 62.6606 24.0539 61.9146 22.7379 62.0236 21.9929 62.9016 21.2479 63.7806 21.3569 65.0966 22.2359 65.8416 23.1129 66.5866 24.4299 66.4776 25.1739 65.5996M30.8331 72.6382C31.5811 71.7562 31.4741 70.4342 30.5911 69.6862 29.7081 68.9382 28.3871 69.0472 27.6391 69.9292 26.8911 70.8112 26.9991 72.1332 27.8821 72.8812 28.7641 73.6292 30.0851 73.5202 30.8331 72.6382M35.4523 79.7251C36.3343 80.4731 37.6563 80.3641 38.4043 79.4821 39.1523 78.6001 39.0433 77.2781 38.1613 76.5301 37.2793 75.7821 35.9573 75.8911 35.2093 76.7731 34.4613 77.6551 34.5693 78.9771 35.4523 79.7251M38.5411 67.7935C37.6961 67.0765 36.4301 67.1805 35.7141 68.0255 34.9971 68.8705 35.1021 70.1365 35.9461 70.8535 36.7911 71.5695 38.0571 71.4655 38.7731 70.6205 39.4901 69.7755 39.3861 68.5095 38.5411 67.7935M32.2164545 60.4635342C31.3934545 59.7655342 30.1604545 59.8675342 29.4634545 60.6905342 28.7664545 61.5125342 28.8664545 62.7445342 29.6904545 63.4425342 30.5124545 64.1395342 31.7444545 64.0385342 32.4434545 63.2155342 33.1404545 62.3935342 33.0384545 61.1605342 32.2164545 60.4635342M26.4273193 56.2014879C27.1213193 55.3824879 27.0203193 54.1554879 26.2013193 53.4614879 25.3823193 52.7664879 24.1563193 52.8684879 23.4613193 53.6864879 22.7673193 54.5054879 22.8673193 55.7324879 23.6873193 56.4264879 24.5053193 57.1204879 25.7333193 57.0204879 26.4273193 56.2014879M30.1017 47.8589C30.8747 48.5149 32.0357 48.4199 32.6917 47.6459 33.3477 46.8719 33.2527 45.7119 32.4787 45.0559 31.7047 44.3989 30.5447 44.4949 29.8887 45.2689 29.2317 46.0429 29.3277 47.2029 30.1017 47.8589M19.0837781 28.4490682C19.7087781 27.7120682 19.6177781 26.6090682 18.8807781 25.9840682 18.1437781 25.3590682 17.0397781 25.4490682 16.4147781 26.1860682 15.7907781 26.9230682 15.8807781 28.0270682 16.6177781 28.6520682 17.3547781 29.2770682 18.4587781 29.1860682 19.0837781 28.4490682M23.1827 41.5957C23.9787 42.2707 25.1717 42.1727 25.8477 41.3767 26.5227 40.5797 26.4237 39.3867 25.6277 38.7117 24.8307 38.0357 23.6387 38.1337 22.9627 38.9307 22.2867 39.7267 22.3857 40.9207 23.1827 41.5957M18.3035135 34.4761827C17.4585135 33.7591827 16.1925135 33.8641827 15.4765135 34.7081827 14.7595135 35.5541827 14.8635135 36.8191827 15.7085135 37.5361827 16.5535135 38.2521827 17.8195135 38.1481827 18.5355135 37.3031827 19.2515135 36.4581827 19.1485135 35.1921827 18.3035135 34.4761827M25.7491 32.1377C26.4141 31.3527 26.3171 30.1757 25.5321 29.5097 24.7471 28.8437 23.5701 28.9407 22.9041 29.7257 22.2381 30.5117 22.3351 31.6877 23.1211 32.3537 23.9061 33.0197 25.0831 32.9237 25.7491 32.1377M33.9903871 37.793629C34.5953871 37.079629 34.5083871 36.008629 33.7933871 35.402629 33.0793871 34.796629 32.0083871 34.884629 31.4023871 35.599629 30.7963871 36.314629 30.8853871 37.384629 31.5983871 37.990629 32.3133871 38.596629 33.3843871 38.508629 33.9903871 37.793629M33.633944 56.1615336C34.389944 56.8025336 35.520944 56.7085336 36.160944 55.9535336 36.802944 55.1975336 36.708944 54.0665336 35.952944 53.4255336 35.197944 52.7855336 34.066944 52.8775336 33.425944 53.6335336 32.784944 54.3895336 32.877944 55.5205336 33.633944 56.1615336M41.0108 61.1836C40.3478 61.9656 40.4448 63.1366 41.2258 63.7996 42.0068 64.4616 43.1778 64.3656 43.8408 63.5836 44.5038 62.8026 44.4068 61.6316 43.6258 60.9686 42.8448 60.3056 41.6728 60.4016 41.0108 61.1836M51.026958 65.4363686C50.252958 64.7793686 49.091958 64.8753686 48.435958 65.6493686 47.779958 66.4233686 47.874958 67.5833686 48.648958 68.2403686 49.422958 68.8953686 50.583958 68.8013686 51.239958 68.0263686 51.895958 67.2523686 51.799958 66.0923686 51.026958 65.4363686M43.5118 74.5918C44.3488 75.3018 45.6038 75.1988 46.3138 74.3618 47.0238 73.5238 46.9198 72.2688 46.0828 71.5588 45.2448 70.8488 43.9908 70.9518 43.2808 71.7898 42.5708 72.6268 42.6738 73.8818 43.5118 74.5918M51.63 78.0713C52.459 78.7753 53.703 78.6733 54.407 77.8423 55.11 77.0123 55.009 75.7693 54.179 75.0653 53.349 74.3623 52.105 74.4643 51.401 75.2943 50.697 76.1243 50.8 77.3673 51.63 78.0713M44.2882 84.0244C45.1702 84.7724 46.4922 84.6644 47.2402 83.7814 47.9882 82.8994 47.8792 81.5784 46.9972 80.8294 46.1152 80.0824 44.7942 80.1904 44.0452 81.0724 43.2972 81.9554 43.4062 83.2764 44.2882 84.0244M52.7853 87.9742C53.6643 88.7192 54.9803 88.6112 55.7253 87.7322 56.4703 86.8542 56.3613 85.5372 55.4833 84.7922 54.6043 84.0472 53.2883 84.1562 52.5433 85.0342 51.7993 85.9132 51.9073 87.2292 52.7853 87.9742M62.6534 80.6851C63.3574 79.8551 63.2554 78.6111 62.4244 77.9081 61.5944 77.2041 60.3504 77.3061 59.6474 78.1361 58.9434 78.9661 59.0464 80.2101 59.8764 80.9141 60.7054 81.6171 61.9494 81.5151 62.6534 80.6851M60.0117341 69.4342428C59.2407341 68.7812428 58.0867341 68.8752428 57.4337341 69.6452428 56.7807341 70.4162428 56.8757341 71.5702428 57.6467341 72.2242428 58.4157341 72.8772428 59.5717341 72.7822428 60.2247341 72.0122428 60.8777341 71.2412428 60.7827341 70.0872428 60.0117341 69.4342428M68.2396273 75.0269492C68.8956273 74.2529492 68.8016273 73.0929492 68.0266273 72.4359492 67.2526273 71.7789492 66.0936273 71.8759492 65.4356273 72.6499492 64.7796273 73.4229492 64.8756273 74.5829492 65.6486273 75.2399492 66.4236273 75.8969492 67.5836273 75.8009492 68.2396273 75.0269492M71.1437 80.2832C71.1227 80.2622 71.1137 80.2352 71.0907 80.2162 70.2527 79.5062 68.9987 79.6092 68.2897 80.4472 67.5797 81.2832 67.6817 82.5382 68.5187 83.2482 68.5417 83.2682 68.5707 83.2722 68.5937 83.2902L71.1437 80.2832zM65.1778 87.3194C65.0538 87.0454 64.8828 86.7894 64.6378 86.5814 63.7558 85.8334 62.4348 85.9424 61.6868 86.8244 60.9378 87.7064 61.0468 89.0274 61.9288 89.7764 62.1738 89.9844 62.4538 90.1104 62.7448 90.1874L65.1778 87.3194z"/>
  </g>
</svg>
