<svg xmlns="http://www.w3.org/2000/svg" width="207" height="207" viewBox="0 0 207 207">
  <g fill="none" fill-rule="evenodd">
    <path fill="#FAD136" d="M186.857846 195.053877C187.439244 192.924244 186.184714 190.725194 184.053751 190.142582 181.924026 189.55997 179.724881 190.815685 179.142244 192.945318 178.560847 195.07619 179.814137 197.27524 181.9451 197.857852 184.076064 198.439225 186.275209 197.18475 186.857846 195.053877M196.577676 203.87564C198.442176 204.384507 200.365119 203.285526 200.875433 201.422531 201.384322 199.558111 200.288144 197.633824 198.423645 197.124957 196.559145 196.614664 194.634777 197.713646 194.124463 199.576641 193.615574 201.441061 194.713177 203.365348 196.577676 203.87564M194.857845 186.054332C195.439249 183.924508 194.184705 181.725259 192.053717 181.142595 189.923969 180.55993 187.724799 181.815758 187.142155 183.945583 186.560751 186.076647 187.815295 188.275895 189.946283 188.85732 192.077271 189.439984 194.275201 188.185396 194.857845 186.054332M176.945821 183.857334C179.076785 184.43994 181.27469 183.185478 181.857327 181.054629 182.439964 178.925018 181.185435 176.724752 179.054471 176.142146 176.923507 175.56078 174.725602 176.815242 174.141725 178.946091 173.561568 181.075702 174.814857 183.274728 176.945821 183.857334M183.945366 172.857321C186.076521 173.43998 188.275864 172.185405 188.857314 170.054363 189.440003 167.924562 188.185361 165.725337 186.054206 165.142679 183.92305 164.56002 181.724947 165.814595 181.142257 167.945637 180.560808 170.075438 181.81421 172.274663 183.945366 172.857321M144.143109 21.9461228C143.559205 24.0769952 144.815033 26.274806 146.946099 26.857418 149.075925 27.4400299 151.275175 26.1843152 151.857839 24.0546824 152.439265 21.92381 151.184676 19.7247597 149.05361 19.1421477 146.922544 18.5607753 144.724534 19.8152505 144.143109 21.9461228M140.143108 5.94612284C139.55921 8.07699521 140.815024 10.274806 142.946066 10.857418 145.075867 11.4400299 147.276332 10.1843152 147.85775 8.05468241 148.439169 5.92381004 147.185834 3.72475968 145.054792 3.14214769 142.923751 2.5607753 140.725766 3.81525048 140.143108 5.94612284M131.142385 15.9457094C130.560386 18.0758607 131.815167 20.2744057 133.946678 20.857617 136.076945 21.4395847 138.27561 20.1848721 138.857609 18.0547208 139.439609 15.923326 138.184828 13.7235376 136.05456 13.1428133 133.924293 12.559602 131.725628 13.8155581 131.142385 15.9457094M125.055286 23.1422953C122.924691 22.5604884 120.725287 23.8154396 120.142282 25.9462293 119.560529 28.0757677 120.815365 30.2753733 122.94596 30.8571802 125.077805 31.4402383 127.274707 30.185287 127.857712 28.0544974 128.439466 25.9237077 127.184629 23.7241022 125.055286 23.1422953M137.054215 29.1424973C134.922463 28.5600354 132.724601 29.8160078 132.14208 31.9462965 131.560807 34.0753379 132.815659 36.2754722 134.946163 36.857934 137.076668 37.4391486 139.27453 36.1844235 139.857051 34.0541348 140.440819 31.9238461 139.183472 29.7249591 137.054215 29.1424973M155.857423 40.0543321C156.440036 37.9245076 155.18432 35.7252593 153.053446 35.1425949 150.925052 34.5599304 148.72476 35.8157583 148.142148 37.9455827 147.560775 40.0766469 148.815251 42.2758952 150.946125 42.8573199 153.076999 43.4399844 155.274811 42.1853963 155.857423 40.0543321M158.857423 53.0544173C159.440036 50.9233531 158.18432 48.7241048 156.053446 48.1426801 153.925052 47.5600156 151.72476 48.8146037 151.142148 50.9456679 150.560775 53.0767321 151.815251 55.2759804 153.946125 55.8574051 156.076999 56.4400696 158.274811 55.1842417 158.857423 53.0544173M140.054647 42.1425999C137.924142 41.5600919 135.723785 42.8149164 135.142512 44.9453737 134.559991 47.0758311 135.81609 49.2748921 137.946595 49.8574001 140.077099 50.4399081 142.274962 49.1850836 142.857483 47.0546263 143.440003 44.9229216 142.183904 42.7238605 140.054647 42.1425999M141.1426 60.9454073C140.560092 63.075889 141.814916 65.2749752 143.945374 65.8574898 146.075831 66.4400044 148.276139 65.1839183 148.8574 63.0534366 149.439908 60.922955 148.185084 58.7238688 146.054626 58.1426015 143.922922 57.5600869 141.725108 58.8149257 141.1426 60.9454073M155.142582 63.9462807C154.55997 66.0760276 155.815684 68.2751959 157.945316 68.8578391 160.074947 69.4392426 162.275235 68.1847002 162.857847 66.0549533 163.439219 63.9239667 162.184744 61.7247985 160.055113 61.1421553 157.924242 60.5607518 155.725194 61.8152942 155.142582 63.9462807M164.054449 75.1423907C161.923169 74.5603916 159.724742 75.8151717 159.142806 77.9454376 158.559626 80.0757034 159.815514 82.2756102 161.945551 82.8576093 164.076831 83.4396084 166.275258 82.1848283 166.857194 80.0545624 167.440374 77.9242966 166.184486 75.7243898 164.054449 75.1423907M167.857839 94.0538751C168.439242 91.9242408 167.184701 89.7251889 165.054955 89.1425765 162.92397 88.5599641 160.724804 89.8156798 160.142161 91.9465536 159.560758 94.0761879 160.815299 96.2752398 162.945045 96.8578522 165.07603 97.439225 167.275196 96.1847489 167.857839 94.0538751M171.053129 101.142433C168.922885 100.560236 166.724452 101.815558 166.142328 103.946068 165.560205 106.076578 166.816632 108.275284 168.945614 108.857481 171.075858 109.439677 173.275554 108.185619 173.857677 106.053846 174.439801 103.924598 173.183374 101.724629 171.053129 101.142433M172.857312 119.054386C173.440008 116.923299 172.185352 114.724027 170.054172 114.142596 167.924232 113.559926 165.724864 114.815767 165.142168 116.945614 164.560712 119.076701 165.815368 121.275973 167.946548 121.857404 170.076488 122.440074 172.275856 121.184233 172.857312 119.054386M154.142378 106.945709C153.560409 109.075861 154.815123 111.275649 156.946519 111.857617 159.076672 112.439585 161.275218 111.184872 161.857187 109.054721 162.440398 106.923326 161.184441 104.724781 159.054289 104.142813 156.924136 103.559602 154.725589 104.815558 154.142378 106.945709M158.85751 122.054135C159.439941 119.923846 158.184036 117.724959 156.053862 117.142497 153.923688 116.560035 151.723673 117.816008 151.14249 119.946296 150.560059 122.076585 151.815964 124.275472 153.946138 124.857934 156.076312 125.439149 158.273833 124.184424 158.85751 122.054135M154.857468 134.054061C155.439717 131.923644 154.185544 129.725034 152.053578 129.142863 149.924137 128.55943 147.72523 129.815959 147.142981 131.946376 146.559469 134.076792 147.814904 136.275403 149.944345 136.857574 152.076312 137.439744 154.275218 136.184478 154.857468 134.054061M135.945612 140.857354C138.075793 141.440063 140.275068 140.184696 140.857804 138.054613 141.439237 135.923226 140.185115 133.724052 138.053631 133.142646 135.92345 132.559937 133.724175 133.815304 133.142742 135.945387 132.560006 138.07547 133.814128 140.274644 135.945612 140.857354M132.94656 154.857523C135.077453 155.439741 137.274812 154.184916 137.857052 152.054106 138.440621 149.924626 137.184418 147.724694 135.054855 147.142477 132.923962 146.560259 130.723944 147.815084 130.143034 149.945894 129.559464 152.076704 130.814338 154.275306 132.94656 154.857523M149.054378 143.142355C146.923794 142.560479 144.724151 143.815029 144.142268 145.94559 143.560386 148.076151 144.816229 150.27577 146.945534 150.857645 149.077398 151.439521 151.274483 150.184971 151.857644 148.05441 152.439526 145.923849 151.184962 143.725509 149.054378 143.142355M164.857167 144.054659C165.440278 141.923986 164.185213 139.725752 162.05423 139.142726 159.924498 138.5597 157.724693 139.815833 157.142833 141.945255 156.559722 144.075928 157.814787 146.275413 159.94577 146.857188 162.075502 147.440214 164.275307 146.185332 164.857167 144.054659M166.055057 127.142679C163.924208 126.56002 161.725181 127.814595 161.142575 129.945637 160.559969 132.076678 161.815671 134.275903 163.94652 134.857321 166.07613 135.43998 168.275157 134.185405 168.857763 132.054363 169.439129 129.924562 168.185907 127.725337 166.055057 127.142679M179.053954 125.142426C176.923018 124.560255 174.725814 125.815561 174.142405 127.945421 173.560296 130.076581 174.815469 132.275314 176.946406 132.857485 179.077343 133.439655 181.274546 132.18565 181.857955 130.05449 182.438765 127.924629 181.18619 125.724596 179.053954 125.142426M180.857859 143.054386C181.439204 140.923299 180.184788 138.724027 178.054016 138.142596 175.924483 137.559926 173.725537 138.815767 173.141713 140.945614 172.561607 143.076701 173.814784 145.274733 175.945556 145.857404 178.076328 146.440074 180.274035 145.184233 180.857859 143.054386M181.946125 158.857321C184.076999 159.43998 186.274811 158.185405 186.857423 156.054363 187.440036 153.923322 186.18432 151.724097 184.053446 151.142679 181.923812 150.56002 179.72476 151.814595 179.142148 153.945637 178.560775 156.076678 179.815251 158.274663 181.946125 158.857321M174.85751 167.054135C175.439941 164.923846 174.184036 162.724959 172.053862 162.142497 169.923688 161.560035 167.72492 162.816008 167.14249 164.946296 166.560059 167.076585 167.815964 169.274225 169.946138 169.857934 172.076312 170.439149 174.273833 169.184424 174.85751 167.054135M167.945711 156.857187C170.077108 157.440398 172.275654 156.184442 172.857622 154.054291 173.439591 151.924139 172.184877 149.724351 170.053481 149.142383 167.923328 148.560415 165.724782 149.815128 165.142813 151.945279 164.559602 154.07543 165.815559 156.275219 167.945711 156.857187M158.0539 153.142433C155.923367 152.560237 153.723374 153.815557 153.142434 155.946066 152.560232 158.076574 153.815566 160.275279 155.9461 160.857475 158.076633 161.439671 160.275363 160.185613 160.857566 158.055105 161.439768 155.924596 160.184434 153.724628 158.0539 153.142433M155.054847 166.142355C152.924065 165.560479 150.724218 166.815029 150.142282 168.94559 149.560345 171.076151 150.816305 173.27577 152.945808 173.857645 155.077869 174.439521 157.275158 173.184971 157.857094 171.05441 158.44031 168.923849 157.185629 166.72423 155.054847 166.142355M169.857467 179.05453C170.439876 176.923523 169.184684 174.724745 167.054624 174.142421 164.922054 173.560096 162.724213 174.816361 162.14306 176.946113 161.559396 179.07712 162.814587 181.275897 164.944647 181.856967 167.075962 182.440546 169.275058 181.185536 169.857467 179.05453M166.946359 194.85748C169.076227 195.439836 171.275123 194.184758 171.85748 192.054892 172.439836 189.923771 171.184758 187.723621 169.05489 187.14252 166.923768 186.560164 164.723616 187.815242 164.142515 189.945108 163.560158 192.076229 164.815237 194.275124 166.946359 194.85748M158.857408 186.053809C159.4399 183.923107 158.185104 181.724417 156.054003 181.142034 153.922903 180.560934 151.723802 181.815495 151.142592 183.944914 150.5601 186.075616 151.814896 188.274306 153.945997 188.857972 156.075814 189.439072 158.276198 188.184511 158.857408 186.053809M145.857533 186.054217C146.439513 183.925099 145.185911 181.725653 143.055202 181.142352 140.923114 180.56043 138.72345 181.815286 138.142849 183.945783 137.55949 186.07628 138.81585 188.274347 140.94518 188.857648 143.075889 189.43957 145.275553 188.184714 145.857533 186.054217M139.945212 175.857754C142.075898 176.439397 144.276812 175.184692 144.857185 173.054211 145.440209 170.92373 144.185383 168.724353 142.054697 168.14271 139.924011 167.559743 137.724422 168.815773 137.142724 170.944929 136.5597 173.07541 137.815851 175.276112 139.945212 175.857754M146.857913 161.054445C147.439264 158.92424 146.184016 156.72494 144.054134 156.142198 141.924253 155.560759 139.723984 156.814894 139.142633 158.946402 138.559979 161.076607 139.815227 163.275907 141.945108 163.857346 144.07499 164.440088 146.273956 163.184649 146.857913 161.054445M126.945056 168.857392C129.074904 169.439979 131.273948 168.184856 131.857961 166.053777 132.439206 163.924082 131.183994 161.723812 129.052762 161.142608 126.922914 160.560021 124.72387 161.815144 124.142625 163.946223 123.559996 166.075918 124.815209 168.274804 126.945056 168.857392M125.14228 178.945736C124.560653 181.075237 125.814786 183.276048 127.945556 183.857711 130.074927 184.439374 132.275603 183.185164 132.85723 181.054264 133.440255 178.923364 132.184723 176.723952 130.055353 176.142289 127.923185 175.560626 125.725305 176.814836 125.14228 178.945736M114.945219 179.857364C117.076437 180.440099 119.275241 179.184514 119.857984 177.053324 120.439226 174.923635 119.183624 172.724859 117.053908 172.142124 114.92269 171.56089 112.723886 172.814973 112.142645 174.944662 111.559902 177.075852 112.815503 179.274628 114.945219 179.857364M109.945842 166.857459C112.076325 167.440014 114.274899 166.184117 114.857453 164.053632 115.440006 161.923148 114.184111 159.724572 112.055141 159.142017 109.924658 158.560976 107.724571 159.81536 107.142017 161.945844 106.560977 164.076329 107.815359 166.274905 109.945842 166.857459M123.87566 155.053663C124.38432 152.92283 123.28636 150.723947 121.42169 150.142682 119.55826 149.559999 117.634039 150.814681 117.12538 152.945514 116.61424 155.076346 117.712199 157.275229 119.57687 157.857912 121.44154 158.439177 123.365761 157.184495 123.87566 155.053663M121.577716 143.857617C123.440807 144.43964 125.366645 143.184568 125.875857 141.055084 126.383863 138.924221 125.287005 136.724398 123.4215 136.142376 121.558409 135.560354 119.633778 136.815426 119.124565 138.946289 118.615353 141.075772 119.713418 143.275595 121.577716 143.857617M109.946647 135.857493C112.076354 136.439855 114.276524 135.184543 114.857484 133.05497 115.439882 130.923959 114.184491 128.725366 112.054784 128.143004 109.923639 127.559205 107.723469 128.815955 107.142509 130.945528 106.560111 133.076539 107.815502 135.275132 109.946647 135.857493M106.577928 150.857355C108.441107 151.440098 110.364728 150.184498 110.875854 148.054783 111.384352 145.923567 110.284577 143.724765 108.421398 143.142022 106.556905 142.560782 104.634599 143.816382 104.124787 145.944594 103.614975 148.07581 104.713436 150.274612 106.577928 150.857355M95.5776702 161.8753C97.4416091 162.384966 99.3651714 161.286131 99.874809 159.422085 100.385866 157.558039 99.2856737 155.634367 97.4231543 155.1247 95.5577957 154.615034 93.6342334 155.713869 93.1245959 157.577915 92.6149584 159.441961 93.7151508 161.365633 95.5776702 161.8753M103.875195 172.422311C104.385067 170.557976 103.286447 168.6345 101.423017 168.124765 99.558179 167.61503 97.6327759 168.713354 97.1243118 170.577689 96.6158476 172.442024 97.7130598 174.3655 99.5778978 174.875235 101.441327 175.38497 103.366731 174.286646 103.875195 172.422311M82.5779556 171.875158C84.4417797 172.385226 86.3652462 171.286043 86.8751885 169.421758 87.3851308 167.557472 86.2862201 165.633529 84.4223959 165.124952 82.5585718 164.614883 80.6351053 165.712575 80.1236719 167.57686 79.6167117 169.441146 80.7141314 171.365089 82.5779556 171.875158M78.5785111 157.875151C80.4409285 158.385033 82.3680341 157.287056 82.8750088 155.422 83.3849923 153.558447 82.2883022 151.634732 80.4243804 151.124849 78.5574498 150.614967 76.633353 151.712944 76.1248739 153.578 75.6148905 155.441553 76.7130849 157.365268 78.5785111 157.875151M91.5769429 149.875452C93.4406116 150.38449 95.3664967 149.287231 95.8755413 147.422172 96.3845858 145.558528 95.285898 143.634081 93.4236434 143.125043 91.5585608 142.614591 89.6340896 143.713265 89.125045 145.57691 88.6145865 147.441968 89.7132743 149.366414 91.5769429 149.875452M92.1249675 133.577939C91.61479 135.442368 92.7127808 137.366403 94.5788105 137.875136 96.4420675 138.385255 98.366324 137.286004 98.8751152 135.422961 99.3852927 133.558532 98.2859156 131.634497 96.4240449 131.124378 94.5580152 130.615646 92.6323723 131.71351 92.1249675 133.577939M101.054856 118.142396C98.9249089 117.560466 96.727129 118.81478 96.1422602 120.945003 95.5604063 123.075227 96.8160652 125.274799 98.9475198 125.858236 101.077467 126.438657 103.276754 125.184343 103.857101 123.05412 104.440462 120.923897 103.184803 118.724325 101.054856 118.142396M118.857738 120.054212C119.439488 117.924154 118.184352 115.724667 116.054508 115.142859 113.923277 114.559662 111.724012 115.814924 111.142262 117.944982 110.560512 120.076429 111.815648 122.275915 113.945492 122.857723 116.075335 123.439532 118.274599 122.18427 118.857738 120.054212M124.946656 130.857064C127.076962 131.440415 129.275513 130.185407 129.857601 128.054034 130.439688 125.923998 129.18452 123.724388 127.054214 123.142375 124.922569 122.560362 122.724018 123.81537 122.14193 125.946743 121.561181 128.075441 122.815011 130.27505 124.946656 130.857064M128.946227 117.857672C131.076552 118.439649 133.276188 117.184148 133.858137 115.053718 134.438778 112.924597 133.184646 110.724854 131.053013 110.142876 128.922688 109.559591 126.725667 110.815093 126.142411 112.945522 125.560462 115.075951 126.814594 117.275695 128.946227 117.857672M138.945155 126.857645C141.075939 127.439521 143.275787 126.184971 143.857724 124.05441 144.439661 121.923849 143.183701 119.72423 141.052917 119.142355 138.922133 118.560479 136.724843 119.815029 136.142906 121.94559 135.55969 124.076151 136.814371 126.274491 138.945155 126.857645M143.946198 114.857778C146.077043 115.439263 148.275032 114.18508 148.857784 112.055503 149.439269 109.923393 148.185085 107.725406 146.05424 107.142654 143.923395 106.559903 141.725407 107.815352 141.142655 109.946196 140.559903 112.07704 141.815353 114.276293 143.946198 114.857778M152.857725 99.0544995C153.439448 96.9237113 152.184679 94.7253586 150.0542 94.1423009 147.92372 93.5604943 145.724435 94.8154447 145.142713 96.9449817 144.55974 99.077021 145.815759 101.275374 147.944988 101.85718 150.075467 102.440238 152.274752 101.185288 152.857725 99.0544995M154.054289 83.1428133C151.922892 82.559602 149.725589 83.8155581 149.142378 85.9457094 148.560409 88.0758607 149.815123 90.2756492 151.946519 90.857617 154.076672 91.4395847 156.275218 90.1848721 156.857187 88.0547208 157.440398 85.923326 156.184441 83.7247811 154.054289 83.1428133M152.857413 76.0541348C153.439868 73.9238461 152.185157 71.7249591 150.054893 71.1424973 147.924629 70.5600354 145.725767 71.8160078 145.142064 73.9462965 144.560856 76.0753379 145.815567 78.2754722 147.945832 78.857934 150.077343 79.4391486 152.276205 78.1844235 152.857413 76.0541348M132.142519 70.9451713C131.560323 73.0755635 132.814381 75.2754112 134.946152 75.8575753 137.075398 76.4397393 139.274103 75.1844875 139.857562 73.0540954 140.439758 70.9237033 139.184437 68.7251184 137.055192 68.1429543 134.92342 67.5595274 132.724715 68.8147792 132.142519 70.9451713M129.054005 77.1425712C126.924189 76.5601659 124.723807 77.8147746 124.142598 79.945557 123.560106 82.0763393 124.814902 84.2751117 126.944718 84.8575169 129.075817 85.4399222 131.274916 84.1840306 131.857408 82.0545312 132.439899 79.9237488 131.185104 77.7249765 129.054005 77.1425712M135.14254 85.9454413C134.560259 88.0760287 135.8145 90.2760781 137.946583 90.8570326 140.076141 91.440513 142.275167 90.1851461 142.857448 88.0545587 143.439729 85.9239713 142.185488 83.7239219 140.055931 83.1429674 137.923848 82.559487 135.724821 83.8148539 135.14254 85.9454413M133.946468 104.857421C136.076087 105.439858 138.276266 104.18518 138.857421 102.05428 139.439859 99.9233792 138.18518 97.7244849 136.054278 97.1420474 133.923376 96.5608927 131.725763 97.815571 131.142042 99.9451886 130.560887 102.076089 131.815566 104.274983 133.946468 104.857421M118.946098 109.857384C121.076819 110.439985 123.276012 109.184842 123.857362 107.054455 124.440054 104.924067 123.184715 102.725217 121.053994 102.142616 118.923274 101.560015 116.725423 102.815158 116.142731 104.945545 115.560038 107.075933 116.814035 109.274783 118.946098 109.857384M122.946448 96.857672C125.076998 97.4396492 127.276866 96.1841477 127.857568 94.0537184 128.439578 91.924597 127.185314 89.7235458 125.054764 89.1428763 122.922906 88.5595912 120.724346 89.8150928 120.142336 91.945522 119.560326 94.0759513 120.815898 96.2756947 122.946448 96.857672M118.857298 84.0548097C119.440067 81.9238541 118.18518 79.7248893 116.054139 79.1421436 113.924432 78.5607314 111.725379 79.8155682 111.14261 81.9451903 110.559842 84.0761459 111.816062 86.2751107 113.945769 86.8578564 116.07681 87.4392686 118.275863 86.1844318 118.857298 84.0548097M107.577478 75.8572175C109.441506 76.440309 111.366047 75.1846284 111.875065 73.0543106 112.38527 70.9239929 111.28655 68.7245178 109.422522 68.1427825 107.557307 67.559691 105.633953 68.8153716 105.124935 70.9456894 104.61473 73.0760071 105.71345 75.2754822 107.577478 75.8572175M101.945896 64.8575376C104.076912 65.4396942 106.275036 64.1849756 106.857094 62.0549676 107.440521 59.9235899 106.184646 57.7250929 104.05363 57.1429364 101.923983 56.5594101 99.7258593 57.8154984 99.142432 59.9455064 98.5603742 62.0768841 99.8148799 64.2753811 101.945896 64.8575376M93.5782726 76.8574874C95.4419933 77.4396945 97.3665287 76.1854872 97.8758528 74.0536244 98.3839099 71.9232098 97.2867093 69.7247263 95.4229886 69.1425192 93.558001 68.5603121 91.6347325 69.8145194 91.1241415 71.944934 90.6160844 74.0767968 91.713285 76.2752803 93.5782726 76.8574874M105.857912 86.0536628C106.439177 83.9242479 105.184495 81.723947 103.053663 81.1426819 100.924248 80.5599992 98.723947 81.8146811 98.1426819 83.9455137 97.5599992 86.0763463 98.8146811 88.2738117 100.945514 88.8579122 103.076346 89.4391772 105.275229 88.1844954 105.857912 86.0536628M108.944975 99.8576322C111.075813 100.43962 113.27561 99.184623 113.857625 97.0538872 114.439641 94.9231513 113.184584 92.7248387 111.053746 92.1428513 108.922909 91.5594847 106.724491 92.8158604 106.142476 94.9452171 105.56046 97.075953 106.814138 99.2756448 108.944975 99.8576322M104.577062 111.857493C106.441812 112.439855 108.365701 111.184543 108.875299 109.05497 109.384897 106.923959 108.28643 104.725366 106.422938 104.143004 104.558188 103.559205 102.633041 104.815955 102.124701 106.945528 101.615103 109.075101 102.71357 111.275132 104.577062 111.857493M97.8749439 99.0537233C98.3854401 96.9236647 97.2866202 94.7242623 95.4240346 94.1423779 93.5588109 93.5604936 91.6342271 94.8147107 91.1250501 96.9462767 90.6145539 99.0763353 91.7133738 101.275738 93.5772785 101.857622 95.4411831 102.439506 97.3657669 101.185289 97.8749439 99.0537233M86.5775811 89.8754319C88.441382 90.3847196 90.3661358 89.2862294 90.8754302 87.4224532 91.3847247 85.5573225 90.2862199 83.6339488 88.4224189 83.1246611 86.558618 82.6153734 84.6338642 83.7125091 84.1245698 85.5776398 83.6152753 87.441416 84.7137801 89.3661442 86.5775811 89.8754319M72.8751361 86.4228649C73.3850663 84.5583011 72.286978 82.6343377 70.4225459 82.1243715 68.5595624 81.6158541 66.6342863 82.7125712 66.1243562 84.5771351 65.6158747 86.4416989 66.7125143 88.367111 68.5783951 88.8756285 70.4413785 89.3841459 72.3666546 88.2874288 72.8751361 86.4228649M64.8754424 93.422891C65.3847689 91.5584754 64.2858583 89.6338676 62.4229579 89.1245487 60.5569707 88.6152299 58.6338772 89.7141239 58.1245506 91.5785395 57.6152241 93.4414117 58.7141347 95.3660195 60.5785785 95.8753383 62.4414789 96.3846571 64.3661158 95.2873066 64.8754424 93.422891M74.1241868 97.5778767C73.6160067 99.4418946 74.7132781 101.365538 76.5784976 101.875197 78.4408781 102.384857 80.3657165 101.287457 80.875316 99.423439 81.3849155 97.5580014 80.2862246 95.6343577 78.4224246 95.1246986 76.5586247 94.6150395 74.6337863 95.7138588 74.1241868 97.5778767M88.5779874 114.87538C90.4413937 115.384714 92.3660322 114.286724 92.8753726 112.42195 93.3847129 110.557176 92.2867087 108.633953 90.4233024 108.12462 88.5585045 107.615286 86.6352576 108.713276 86.1245256 110.57805 85.6151853 112.441433 86.7145811 114.366047 88.5779874 114.87538M84.4221436 121.124704C82.5574844 120.615225 80.635583 121.712894 80.1246979 123.577643 79.6152438 125.442392 80.7128598 127.365817 82.5775191 127.875296 84.4421784 128.384775 86.3655107 127.287106 86.8763959 125.422357 87.3829879 123.559039 86.2868029 121.634183 84.4221436 121.124704M77.5771369 141.874958C79.4420894 142.385195 81.3661999 141.287816 81.8749578 139.422863 82.3851946 137.557911 81.2878157 135.6338 79.4228631 135.125042 77.5579106 134.614805 75.635279 135.712184 75.1250422 137.577137 74.6148054 139.44061 75.7121843 141.3662 77.5771369 141.874958M65.2099617 131.893249C66.8060465 132.329603 68.4568465 131.388839 68.8932342 129.790208 69.329622 128.192912 68.388786 126.543573 66.7913668 126.107219 65.192613 125.669531 63.5431474 126.611629 63.1067597 128.208925 62.670372 129.807556 63.6112079 131.45556 65.2099617 131.893249M59.8932985 116.790558C60.3292539 115.192521 59.3901676 113.543775 57.7902935 113.106576 56.1945322 112.670748 54.5439338 113.610931 54.1066074 115.208968 53.670652 116.807005 54.6111093 118.455751 56.2096124 118.89295 57.8081156 119.330148 59.4573431 118.388595 59.8932985 116.790558M70.1249265 114.57647C69.6147191 116.441385 70.7135136 118.365456 72.5783586 118.875682 74.4417247 119.384429 76.3672031 118.285594 76.8744528 116.422159 77.386139 114.557245 76.2873445 112.633174 74.4224995 112.124426 72.5591334 111.615679 70.6351339 112.713035 70.1249265 114.57647M61.5765083 107.875246C63.4410233 108.384947 65.3647052 107.286664 65.8759677 105.422315 66.384196 103.557965 65.284299 101.632937 63.4228182 101.124754 61.556786 100.615053 59.6331041 101.713336 59.1248759 103.577685 58.6151305 105.442035 59.7119933 107.365546 61.5765083 107.875246M48.7898171 102.107136C47.1928796 101.669594 45.5440661 102.611992 45.1066258 104.209301 44.6705876 105.80661 45.6113647 107.455807 47.2083022 107.893349 48.8066418 108.329489 50.4540532 107.388493 50.8928955 105.791184 51.3303358 104.192473 50.3881567 102.544678 48.7898171 102.107136M76.1248851 73.5772786C75.6148797 75.4413706 76.713138 77.3655496 78.577103 77.8755898 80.441068 78.3842326 82.3665131 77.2872969 82.8751212 75.4232048 83.3851267 73.5577154 82.2868684 71.6335364 80.4215061 71.1248936 78.5575411 70.6148535 76.6334933 71.7131866 76.1248851 73.5772786M94.8753379 62.0545527C95.384822 59.9230649 94.2865719 57.724736 92.4214962 57.1424759 90.55902 56.5602158 88.634158 57.8153428 88.1246739 59.9453452 87.6151898 62.0753477 88.7134399 64.275162 90.5759162 64.857422 92.4409918 65.4396821 94.3645541 64.1860405 94.8753379 62.0545527M102.142473 46.9458224C101.560081 49.0760758 102.815988 51.2750043 104.946144 51.8574233 107.0763 52.4398422 109.275128 51.1851983 109.857521 49.0549449 110.439913 46.9233709 109.184006 44.7244423 107.05517 44.1420234 104.922373 43.5609251 102.723545 44.8155691 102.142473 46.9458224M113.142646 54.9455533C112.559937 57.0757565 113.815304 59.2750544 115.945387 59.8577966 118.07547 60.4392352 120.275948 59.1851009 120.857354 57.0548977 121.440063 54.9233908 120.184696 52.7240929 118.054613 52.1426543 115.923226 51.5599121 113.724052 52.8153501 113.142646 54.9455533M124.054589 66.1421816C121.92375 65.560627 119.724258 66.815697 119.142649 68.946337 118.559744 71.0756818 119.816227 73.2749686 121.945771 73.8578184 124.076609 74.439373 126.276101 73.184303 126.85771 71.053663 127.439319 68.923023 126.185427 66.7250314 124.054589 66.1421816M127.142647 56.9457578C126.559927 59.0766015 127.815308 61.2745882 129.946037 61.8573398 132.075498 62.4400913 134.274633 61.1846418 134.857353 59.055065 135.440073 56.9229545 134.184692 54.7249678 132.053963 54.1422163 129.923235 53.5607316 127.7241 54.8149142 127.142647 56.9457578M127.053963 41.1426734C124.924502 40.5598682 122.725367 41.8154332 122.142647 43.9452059 121.559927 46.0762455 122.815308 48.2757014 124.946037 48.8572395 127.076765 49.4400447 129.2759 48.1857467 129.857353 46.054707 130.440073 43.9236674 129.184692 41.7242115 127.053963 41.1426734M110.142352 36.9451544C109.560643 39.076278 110.81415 41.2756078 112.946657 41.8572913 115.075304 42.4402617 117.274733 41.1842372 117.85773 39.0544005 118.43944 36.9232769 117.184645 34.723947 115.054712 34.1422635 112.923492 33.56058 110.724062 34.8153177 110.142352 36.9451544M40.893412 116.790388C41.3293742 115.192003 40.3886137 113.543143 38.7900858 113.10722 37.1930876 112.669767 35.5425501 113.610443 35.106588 115.208828 34.6706258 116.807213 35.6113863 118.456074 37.2099142 118.893526 38.8069124 119.32945 40.4559202 118.387244 40.893412 116.790388M46.2093896 130.893211C47.8070521 131.329754 49.4566832 130.388365 49.8932193 128.790677 50.3297553 127.192989 49.3883817 125.543332 47.7892343 125.106789 46.1930566 124.670246 44.5434255 125.611635 44.1068895 127.209323 43.6703534 128.807011 44.6102422 130.456668 46.2093896 130.893211M53.2094782 142.893044C54.8062836 143.330067 56.4579024 142.388232 56.8935259 140.790142 57.3291494 139.193494 56.3886643 137.544922 54.7918589 137.106457 53.1921687 136.670876 51.5448772 137.611269 51.1063688 139.209359 50.6707453 140.80745 51.6126729 142.456021 53.2094782 142.893044M65.2094293 149.893416C66.8068712 150.329466 68.4572895 149.388087 68.8933259 147.790595 69.3293623 146.193104 68.389371 144.543993 66.7905707 144.106584 65.1917705 143.670534 63.5427105 144.611913 63.1066741 146.209405 62.6706377 147.806896 63.610629 149.456007 65.2094293 149.893416M65.2100531 165.89302C66.8074416 166.33012 68.4560019 165.388142 68.8930363 163.790515 69.3300707 162.192887 68.3882339 160.542696 66.7908454 160.10698 65.1920738 159.66988 63.5435136 160.611858 63.1064791 162.209485 62.6708277 163.807113 63.6112816 165.457304 65.2100531 165.89302M48.2096031 160.893306C49.8069479 161.32946 51.455771 160.389003 51.8933375 158.791286 52.3293899 157.19357 51.3891519 155.542848 49.7902931 155.106694 48.1929483 154.67054 46.5426111 155.610997 46.1065587 157.208714 45.6705063 158.807945 46.6122583 160.457152 48.2096031 160.893306M38.9108393 141.158987C39.2751909 139.828308 38.4898108 138.453093 37.1579034 138.088708 35.8273454 137.725673 34.4522556 138.509775 34.0892535 139.840454 33.7249019 141.172482 34.5089325 142.547697 35.8421894 142.910732 37.1727473 143.275117 38.5464877 142.491015 38.9108393 141.158987M33.4724255 154.92864C34.5383092 155.220079 35.6384912 154.592364 35.9287071 153.528148 36.2202421 152.462614 35.5910014 151.362793 34.5277559 151.071354 33.460553 150.779915 32.3616902 151.40763 32.0714743 152.473164 31.7799393 153.53738 32.4065417 154.637201 33.4724255 154.92864M16.0716847 146.472857C15.7792724 147.538876 16.4080882 148.637238 17.4729346 148.928323 18.5377811 149.220703 19.6388556 148.591958 19.9286801 147.527233 20.2197985 146.462507 19.5935705 145.362851 18.5261363 145.071766 17.4612899 144.779387 16.3628031 145.406837 16.0716847 146.472857M24.8404185 130.910744C26.1718517 131.275084 27.5458227 130.491115 27.9102299 129.158509 28.276055 127.827321 27.4905236 126.452185 26.1590904 126.089263 24.8262392 125.724922 23.4522683 126.508892 23.089279 127.84008 22.7248718 129.172686 23.5089853 130.546404 24.8404185 130.910744M6.03542498 146.737087C5.89034618 147.268898 6.20403007 147.819003 6.73598567 147.964042 7.26794128 148.110389 7.8181951 147.79679 7.96458092 147.263672 8.10965972 146.73186 7.79597583 146.181756 7.26271321 146.035409 6.73075761 145.89037 6.18050378 146.203969 6.03542498 146.737087"/>
  </g>
</svg>
